<svg width="32" height="32" viewBox="0 0 32 32" fill="none" xmlns="http://www.w3.org/2000/svg">
<g clip-path="url(#clip0_2213_26)">
<path fill-rule="evenodd" clip-rule="evenodd" d="M4.96875 16C4.9675 14.5256 5.2625 13.0663 5.83625 11.7081C6.39188 10.3975 7.19438 9.20688 8.20125 8.20125C9.20688 7.19438 10.3975 6.39188 11.7075 5.83625C13.0656 5.2625 14.5256 4.9675 16 4.96875C17.4744 4.9675 18.9344 5.2625 20.2925 5.83625C21.6025 6.39188 22.7931 7.19438 23.7988 8.20125C24.8056 9.20688 25.6081 10.3975 26.1638 11.7075C26.7375 13.0656 27.0325 14.5256 27.0313 16C27.0325 17.4744 26.7375 18.9344 26.1638 20.2925C25.6081 21.6025 24.8056 22.7931 23.7988 23.7988C22.7931 24.8056 21.6025 25.6081 20.2925 26.1638C18.9344 26.7375 17.4744 27.0325 16 27.0313C14.5256 27.0325 13.0656 26.7375 11.7075 26.1638C10.3975 25.6081 9.20688 24.8056 8.20125 23.7988C7.19438 22.7931 6.39188 21.6025 5.83625 20.2925C5.2625 18.9344 4.9675 17.4744 4.96875 16ZM5.90625 16C5.905 14.6513 6.175 13.3156 6.7 12.0725C7.20813 10.8738 7.94313 9.78438 8.86438 8.86438C9.78438 7.94313 10.8738 7.20813 12.0731 6.7C13.3156 6.175 14.6513 5.905 16 5.90625C17.3488 5.905 18.6844 6.175 19.9269 6.7C21.1263 7.20813 22.2156 7.94313 23.1356 8.86438C24.0569 9.78438 24.7919 10.8738 25.3 12.0731C25.825 13.3156 26.095 14.6513 26.0938 16C26.095 17.3488 25.825 18.6844 25.3 19.9269C24.7919 21.1263 24.0569 22.2156 23.1356 23.1356C22.2156 24.0569 21.1263 24.7919 19.9269 25.3C18.6844 25.825 17.3488 26.095 16 26.0938C14.6513 26.095 13.3156 25.825 12.0731 25.3C10.8738 24.7919 9.78438 24.0569 8.86438 23.1356C7.94313 22.2156 7.20813 21.1263 6.7 19.9269C6.175 18.6844 5.905 17.3488 5.90625 16Z" fill="#3AD249"/>
<path d="M18.1256 24.1275H18.125C18.1356 24.1056 18.1456 24.0838 18.1544 24.0619C18.1856 23.9813 18.2138 23.8994 18.2394 23.8169C18.3138 23.5794 18.3831 23.3394 18.4463 23.0981C18.5106 22.8606 18.5719 22.6219 18.6306 22.3825C18.6506 22.3 18.67 22.2181 18.6894 22.1356C18.695 22.11 18.7006 22.0844 18.7063 22.0581C18.7075 22.0525 18.7088 22.0463 18.71 22.04C18.7106 22.0331 18.7113 22.0263 18.7119 22.02C18.7181 21.9681 18.7219 21.9163 18.7225 21.8644C18.7238 21.795 18.7131 21.7263 18.6919 21.6613C18.6819 21.6338 18.6688 21.6075 18.6519 21.5844C18.6356 21.5613 18.6144 21.5413 18.5913 21.525C18.5606 21.5038 18.5313 21.4806 18.5044 21.455C18.4738 21.4275 18.4444 21.3988 18.4163 21.3694C18.3463 21.2963 18.2794 21.22 18.215 21.1419C18.0531 20.945 17.8988 20.7419 17.7538 20.5319C17.6763 20.4213 17.6013 20.3088 17.5288 20.195C17.46 20.0881 17.3944 19.9788 17.3325 19.8675C17.2775 19.7706 17.2275 19.6706 17.1831 19.5688C17.1638 19.5244 17.1463 19.4788 17.1313 19.4331C17.1169 19.3894 17.1063 19.345 17.0988 19.3C17.0875 19.225 17.0819 19.1494 17.0819 19.0731C17.0825 18.8456 17.1306 18.6213 17.2244 18.4138C17.2681 18.3156 17.3225 18.2219 17.3863 18.1356C17.4481 18.0513 17.5206 17.975 17.6013 17.9088C17.6156 17.8969 17.6275 17.8819 17.635 17.865C17.6438 17.8444 17.6481 17.8213 17.6481 17.7988C17.6475 17.7588 17.6394 17.7194 17.6244 17.6825C17.6063 17.6375 17.5806 17.5956 17.5488 17.5594C17.4838 17.4831 17.3913 17.435 17.2919 17.4256C17.1906 17.4138 17.0919 17.385 17.0006 17.34C16.9069 17.295 16.8175 17.2425 16.7325 17.1819C16.6419 17.1188 16.5538 17.0513 16.4681 16.9806C16.3788 16.9075 16.29 16.8338 16.2025 16.7588C16.085 16.6569 15.9656 16.5581 15.8438 16.4619C15.7881 16.4175 15.7306 16.3756 15.6725 16.335C15.62 16.2981 15.5656 16.2644 15.51 16.2325C15.4119 16.1763 15.3113 16.1244 15.2088 16.0769C15.1338 16.0425 15.0569 16.0138 14.9775 15.9906C14.895 15.9675 14.8106 15.9494 14.7256 15.9356C14.6069 15.9163 14.4881 15.8994 14.3688 15.8838C14.2513 15.8681 14.1338 15.8513 14.0163 15.8344C13.8819 15.8138 13.7513 15.775 13.6275 15.7194C13.4988 15.6613 13.3756 15.5919 13.26 15.5106C13.1375 15.4256 13.0213 15.3319 12.9119 15.2313C12.7975 15.1263 12.6888 15.015 12.5856 14.8988C12.3769 14.6625 12.1863 14.41 12.0175 14.1438C11.8588 13.8981 11.7194 13.6413 11.6006 13.3744C11.5338 13.2256 11.4513 13.0831 11.3563 12.95C11.2494 12.8006 11.1344 12.6569 11.0113 12.5206C10.8819 12.3769 10.7481 12.2375 10.61 12.1019C10.4744 11.9688 10.3375 11.8369 10.1988 11.7063C10.07 11.5856 9.94313 11.4638 9.81751 11.3394C9.76126 11.2838 9.70626 11.2263 9.65188 11.1688C9.60251 11.1156 9.55501 11.0613 9.50938 11.005C9.44376 10.9231 9.38813 10.8344 9.34313 10.74C9.30251 10.655 9.27126 10.5656 9.24813 10.4744C9.22751 10.3919 9.21251 10.3075 9.20188 10.2225C9.19313 10.1469 9.18626 10.0706 9.18063 9.99438C9.17563 9.92751 9.16938 9.86126 9.16126 9.79501C9.15501 9.74126 9.14438 9.68813 9.12938 9.63563C9.11751 9.59501 9.10063 9.55563 9.07813 9.51938C9.05563 9.48501 9.02688 9.45376 8.99438 9.42813C8.89938 9.35563 8.79813 9.29063 8.69188 9.23501C8.55688 9.16376 8.41751 9.10063 8.27501 9.04563L8.07126 8.96688L8.22876 8.55876L8.43313 8.63751C8.59126 8.69876 8.74501 8.76876 8.89501 8.84813C9.02376 8.91501 9.14626 8.99376 9.26188 9.08188C9.33501 9.13876 9.39751 9.20751 9.44751 9.28563C9.49251 9.35688 9.52688 9.43438 9.55001 9.51563C9.57126 9.59001 9.58626 9.66626 9.59563 9.74313C9.60438 9.81626 9.61126 9.88938 9.61688 9.96251C9.62188 10.0325 9.62876 10.1019 9.63688 10.1719C9.64438 10.2381 9.65626 10.3038 9.67251 10.3688C9.68876 10.4319 9.71063 10.4938 9.73813 10.5531C9.76813 10.6163 9.80563 10.675 9.84938 10.7294C9.88876 10.7781 9.92938 10.825 9.97188 10.87C10.0219 10.9238 10.0731 10.9769 10.125 11.0288C10.2481 11.15 10.3725 11.2694 10.4981 11.3875C10.6394 11.52 10.7788 11.6544 10.9169 11.79C11.0613 11.9313 11.2006 12.0775 11.3363 12.2275C11.47 12.3763 11.5956 12.5325 11.7119 12.6963C11.8244 12.8525 11.9206 13.02 12 13.1956C12.11 13.4425 12.2388 13.6806 12.3856 13.9075C12.5425 14.155 12.7194 14.3894 12.9131 14.6088C13.0063 14.7138 13.105 14.8144 13.2081 14.9094C13.3031 14.9969 13.4044 15.0781 13.5106 15.1519C13.6038 15.2175 13.7031 15.2738 13.8069 15.32C13.8944 15.3594 13.9863 15.3869 14.0813 15.4019C14.1963 15.4181 14.3113 15.4344 14.4263 15.45C14.5494 15.4663 14.6725 15.4838 14.795 15.5038C14.8975 15.52 14.9981 15.5419 15.0981 15.57C15.1988 15.5994 15.2969 15.6356 15.3919 15.6794C15.5056 15.7325 15.6175 15.79 15.7263 15.8525C15.7938 15.8906 15.8594 15.9319 15.9225 15.9756C15.9881 16.0213 16.0525 16.0688 16.115 16.1181C16.2413 16.2181 16.3663 16.3213 16.4881 16.4269C16.5731 16.5 16.6588 16.5719 16.7456 16.6425C16.8231 16.7063 16.9025 16.7669 16.985 16.8244C17.0506 16.8713 17.12 16.9119 17.1925 16.9469C17.2381 16.9694 17.2881 16.9844 17.3388 16.9906C17.5488 17.0119 17.7419 17.1131 17.8794 17.2731C17.9425 17.3456 17.9931 17.4281 18.0294 17.5169C18.0656 17.605 18.0844 17.6994 18.0856 17.7944C18.0863 17.8781 18.07 17.9613 18.0369 18.0381C18.0013 18.12 17.9469 18.1919 17.8775 18.2481C17.825 18.2913 17.7788 18.34 17.7388 18.3944C17.6931 18.4563 17.6544 18.5225 17.6238 18.5925C17.555 18.7438 17.5194 18.9081 17.5194 19.0738C17.5194 19.1269 17.5231 19.18 17.5313 19.2325C17.535 19.2538 17.54 19.275 17.5469 19.2956C17.5575 19.3294 17.57 19.3619 17.5844 19.3944C17.6231 19.4825 17.6663 19.5694 17.7138 19.6531C17.7719 19.7569 17.8331 19.8594 17.8969 19.9594C17.9669 20.0688 18.0388 20.1763 18.1125 20.2819C18.2513 20.4819 18.3981 20.6763 18.5531 20.8638C18.6106 20.9338 18.6706 21.0019 18.7331 21.0675C18.755 21.09 18.7775 21.1125 18.8006 21.1338C18.8125 21.145 18.8256 21.1556 18.8394 21.165C18.9044 21.2094 18.9619 21.2656 19.0081 21.3294C19.0494 21.3881 19.0825 21.4525 19.1063 21.5206C19.1438 21.6331 19.1619 21.7513 19.1594 21.87C19.1588 21.9375 19.1544 22.0044 19.1463 22.0713C19.1456 22.0781 19.145 22.0844 19.1444 22.0913C19.1419 22.1119 19.1381 22.1331 19.1331 22.1538C19.1275 22.1806 19.1219 22.2069 19.1156 22.2338C19.0963 22.3181 19.0763 22.4025 19.0556 22.4869C18.9963 22.7288 18.9338 22.97 18.8694 23.2113C18.8044 23.4581 18.7331 23.7031 18.6569 23.9469C18.6288 24.0388 18.5969 24.13 18.5619 24.22C18.5494 24.2531 18.5344 24.2863 18.5188 24.3188C18.5013 24.3563 18.4781 24.3906 18.4506 24.4213C18.4156 24.4575 18.3838 24.4963 18.3563 24.5381C18.3131 24.5988 18.2744 24.6625 18.2394 24.7275C18.2031 24.7931 18.1731 24.8606 18.1488 24.9313C18.1388 24.9594 18.1306 24.9888 18.1244 25.0188C18.12 25.0394 18.1175 25.0606 18.1175 25.0825C18.1175 25.09 18.1181 25.0975 18.12 25.105C18.1306 25.1413 18.1519 25.1725 18.1813 25.1956C18.1944 25.2063 18.2088 25.215 18.2244 25.2213C18.2338 25.225 18.2438 25.2269 18.2544 25.2269C18.2575 25.2269 18.2606 25.2263 18.2638 25.225C18.27 25.2213 18.2756 25.2156 18.2794 25.2094C18.3319 25.1338 18.3938 25.065 18.4631 25.005C18.5344 24.9419 18.61 24.8844 18.6894 24.8319C18.775 24.775 18.8625 24.7206 18.9519 24.6694C19.0494 24.6131 19.1469 24.5581 19.2456 24.5044C19.3144 24.4663 19.3819 24.4269 19.4494 24.3856C19.5506 24.325 19.6506 24.2625 19.7506 24.1988C20.0075 24.035 20.2594 23.8625 20.505 23.6819C20.6369 23.585 20.7663 23.485 20.8931 23.3813C21.0144 23.2831 21.1319 23.18 21.2456 23.0731C21.345 22.98 21.4388 22.8813 21.5263 22.7769C21.5625 22.7331 21.5969 22.6875 21.6288 22.6406C21.6556 22.6013 21.68 22.5606 21.7013 22.5181C21.7681 22.3875 21.8444 22.2619 21.9288 22.1419C22.0194 22.0119 22.115 21.885 22.2156 21.7619C22.3194 21.6344 22.4256 21.5088 22.5344 21.3856C22.6406 21.265 22.7475 21.145 22.855 21.0256C22.9888 20.8794 23.12 20.7306 23.2488 20.58C23.2994 20.5206 23.3481 20.46 23.395 20.3975C23.4294 20.3531 23.4606 20.3069 23.4894 20.2588C23.5438 20.1644 23.5975 20.0688 23.6494 19.9731C23.7063 19.8694 23.7588 19.7644 23.8088 19.6575C23.8544 19.5606 23.8931 19.4606 23.9256 19.3581C23.9388 19.3175 23.9494 19.2756 23.9569 19.2331C23.9631 19.2006 23.9669 19.1675 23.9669 19.1344C23.9675 19.1156 23.9644 19.0963 23.9575 19.0788C23.9569 19.0781 23.9563 19.0775 23.9556 19.0769C23.9219 19.0594 23.8863 19.045 23.8494 19.0338C23.8 19.0194 23.75 19.0075 23.6988 18.9981C23.575 18.9775 23.4506 18.9613 23.3263 18.9494C23.26 18.9431 23.1944 18.9356 23.1281 18.9275C23.0644 18.92 23 18.91 22.9369 18.8981C22.875 18.8869 22.8144 18.8719 22.755 18.8525C22.6938 18.8331 22.6356 18.8056 22.5819 18.77C22.5356 18.7394 22.4944 18.7019 22.4588 18.6588C22.4269 18.6194 22.4013 18.575 22.3819 18.5275C22.3663 18.4881 22.3538 18.4469 22.345 18.405C22.3381 18.37 22.3319 18.335 22.3269 18.3C22.3219 18.2638 22.315 18.2281 22.3075 18.1919C22.3 18.1575 22.29 18.1231 22.2769 18.09C22.2619 18.0506 22.2431 18.0138 22.2206 17.9781C22.1913 17.9313 22.1569 17.8875 22.1188 17.8469C22.0669 17.7925 22.0119 17.7419 21.9525 17.6956C21.8694 17.6288 21.7838 17.565 21.6963 17.505C21.48 17.3569 21.2556 17.2213 21.0238 17.0981C20.9025 17.0338 20.7794 16.9725 20.6544 16.9156C20.5369 16.8613 20.4169 16.8125 20.295 16.7681C20.1894 16.7294 20.0806 16.6975 19.9713 16.6719C19.8881 16.6519 19.8031 16.6413 19.7181 16.64C19.7019 16.64 19.685 16.6406 19.6688 16.6419C19.5169 16.6575 19.3663 16.685 19.2181 16.7238C19.0688 16.7625 18.92 16.8056 18.7725 16.8525C18.6456 16.8925 18.5175 16.93 18.3888 16.9631C18.3288 16.9788 18.2681 16.9913 18.2075 17.0013C18.1488 17.0106 18.09 17.0163 18.0306 17.0169C17.9806 17.0169 17.9313 17.0125 17.8819 17.0025C17.7738 16.9794 17.6663 16.95 17.5613 16.9138C17.4425 16.8744 17.3275 16.825 17.2169 16.7663C17.1606 16.7363 17.1063 16.7025 17.0544 16.665C17.0019 16.6281 16.9531 16.5856 16.9094 16.5394C16.8631 16.4906 16.8244 16.4363 16.7938 16.3769C16.7606 16.3138 16.74 16.2444 16.7331 16.1731C16.7306 16.1438 16.72 16.1163 16.7025 16.0925C16.6744 16.055 16.6406 16.0231 16.6019 15.9975C16.5463 15.9606 16.4881 15.9281 16.4275 15.9006C16.3588 15.8688 16.2894 15.8388 16.2194 15.8106C16.1575 15.7856 16.0963 15.7594 16.0363 15.7325C15.9744 15.7038 15.92 15.6606 15.8775 15.6075C15.8406 15.56 15.8125 15.5063 15.7944 15.4494C15.7781 15.3988 15.7669 15.3469 15.7613 15.2944C15.7563 15.2444 15.7538 15.1944 15.7538 15.1438C15.755 15.0631 15.7581 14.9831 15.765 14.9031C15.7656 14.8906 15.7669 14.8781 15.7675 14.8656C15.7494 14.8806 15.7313 14.8963 15.7131 14.9119C15.6269 14.9856 15.5375 15.0556 15.445 15.1219C15.3963 15.1563 15.345 15.1875 15.2919 15.215C15.2356 15.2438 15.1763 15.2663 15.1144 15.28C15.0725 15.2894 15.03 15.2938 14.9869 15.2931C14.9206 15.2925 14.8544 15.2838 14.79 15.2663C14.7238 15.2488 14.6594 15.2244 14.5975 15.1944C14.4631 15.1294 14.34 15.0425 14.2338 14.9381C14.1156 14.8244 14.0194 14.6906 13.9481 14.5431C13.8706 14.3806 13.8306 14.2025 13.83 14.0225C13.83 14.0219 13.83 14.0206 13.83 14.02V14.0044C13.8313 13.8256 13.8613 13.6481 13.9188 13.4788C13.97 13.3281 14.0481 13.1881 14.1488 13.0656C14.2413 12.9525 14.3556 12.8588 14.4856 12.7913C14.6106 12.7256 14.7488 12.6894 14.8894 12.685C15.0056 12.6806 15.1219 12.6731 15.2381 12.6631C15.3594 12.6538 15.4806 12.6456 15.6019 12.6381C15.73 12.6306 15.8588 12.6263 15.9875 12.6256C16.0669 12.6256 16.1463 12.6281 16.2256 12.6331C16.2994 12.6375 16.3731 12.6463 16.4463 12.6588C16.5156 12.6706 16.5825 12.6894 16.6475 12.7144C16.7188 12.7413 16.7831 12.7831 16.8363 12.8363C16.8688 12.8719 16.9069 12.9006 16.95 12.9219C16.9706 12.9325 16.9938 12.9375 17.0169 12.9381C17.0225 12.9381 17.0275 12.9375 17.0325 12.9356C17.0444 12.9088 17.0569 12.8819 17.0713 12.8563C17.0906 12.82 17.1106 12.7844 17.1319 12.7494C17.1913 12.65 17.2519 12.5513 17.3138 12.4531C17.4806 12.1863 17.6444 11.9175 17.8056 11.6469C17.8769 11.5256 17.9456 11.4025 18.0125 11.2788C18.0438 11.2213 18.075 11.1638 18.1075 11.1069C18.1363 11.055 18.1675 11.0031 18.1994 10.9525C18.2619 10.8525 18.3375 10.7606 18.4244 10.6806C18.52 10.5963 18.6288 10.5288 18.7463 10.4806C18.8113 10.4531 18.8788 10.43 18.9469 10.4113C19.0244 10.3894 19.1031 10.3706 19.1825 10.3556C19.2994 10.3331 19.4175 10.3163 19.5356 10.305C19.6475 10.2944 19.7594 10.285 19.8719 10.2781C19.9994 10.2706 20.1269 10.2588 20.2538 10.2438C20.3056 10.2369 20.3569 10.2281 20.4081 10.2169C20.4494 10.2075 20.49 10.1956 20.5294 10.18C20.5581 10.1694 20.5856 10.155 20.6113 10.1375C20.6288 10.125 20.6444 10.11 20.6575 10.0925C20.6706 10.075 20.68 10.055 20.6869 10.0344C20.6963 10.0013 20.7019 9.96688 20.7019 9.93188L20.7031 9.83063C20.7044 9.67251 20.6931 9.51501 20.6694 9.35876C20.6575 9.28501 20.6413 9.21188 20.62 9.14001C20.6006 9.07376 20.575 9.00876 20.5444 8.94688C20.5163 8.89063 20.4813 8.83813 20.4413 8.78938C20.4025 8.74313 20.3575 8.70313 20.3081 8.66876C20.2538 8.63251 20.1944 8.60376 20.1313 8.58376C20.0531 8.55938 19.9719 8.54501 19.89 8.54063C19.7244 8.52938 19.5594 8.51126 19.3956 8.48501C19.2488 8.46126 19.1031 8.43501 18.9575 8.40626C18.8281 8.38063 18.6988 8.35751 18.5688 8.33751C18.4594 8.32001 18.3488 8.31063 18.2375 8.30938C18.1656 8.30876 18.0944 8.31563 18.0238 8.32876C17.9581 8.34188 17.8944 8.36313 17.8338 8.39188C17.6631 8.47438 17.4863 8.54376 17.3056 8.59938C17.1888 8.63563 17.0706 8.66563 16.95 8.68751C16.8238 8.71188 16.695 8.72438 16.5663 8.72501C16.4363 8.72688 16.3069 8.71001 16.1819 8.67563C16.0513 8.64001 15.9288 8.57813 15.8225 8.49376C15.7544 8.44063 15.6988 8.37251 15.6606 8.29501C15.6244 8.21938 15.6056 8.13626 15.6063 8.05251C15.6081 7.96313 15.6263 7.87501 15.6606 7.79188C15.695 7.70938 15.7388 7.63063 15.7919 7.55876C15.8481 7.48188 15.91 7.41001 15.9788 7.34376C16.0506 7.27376 16.1275 7.20876 16.2088 7.14876C16.38 7.02251 16.5675 6.91876 16.7656 6.84126C16.8656 6.80126 16.9688 6.76938 17.0738 6.74563C17.1781 6.72126 17.285 6.70751 17.3919 6.70376C17.3938 6.70376 17.395 6.70376 17.3963 6.70376L17.4463 6.70251C17.4481 6.70251 17.45 6.70251 17.4513 6.70251C17.5563 6.70376 17.6613 6.71001 17.7656 6.72313C17.8806 6.73626 17.9956 6.75376 18.11 6.77438C18.3575 6.81938 18.6044 6.87001 18.85 6.92563C19.0888 6.97938 19.3281 7.02813 19.5688 7.07251C19.6738 7.09126 19.7794 7.10688 19.885 7.11938C19.9725 7.13001 20.06 7.13563 20.1481 7.13626C20.1881 7.13688 20.2281 7.13438 20.2681 7.13001C20.2975 7.12688 20.3263 7.12188 20.3544 7.11376C20.37 7.10938 20.385 7.10313 20.3988 7.09438C20.4019 7.09251 20.4044 7.09063 20.4063 7.08751C20.465 7.00813 20.52 6.92626 20.5719 6.84188C20.6306 6.74501 20.6869 6.64563 20.7394 6.54501L20.84 6.35063L21.2281 6.55251L21.1275 6.74688C21.0706 6.85626 21.0094 6.96438 20.945 7.07001C20.8863 7.16563 20.8238 7.25938 20.7569 7.35001C20.7206 7.39751 20.6756 7.43813 20.625 7.46938C20.5775 7.49751 20.5269 7.51938 20.4738 7.53438C20.4219 7.54938 20.3688 7.55938 20.315 7.56501C20.2581 7.57126 20.2019 7.57438 20.145 7.57376C20.0406 7.57313 19.9363 7.56626 19.8331 7.55376C19.7181 7.54001 19.6044 7.52313 19.4906 7.50251C19.2444 7.45751 18.9988 7.40751 18.7538 7.35188C18.5144 7.29813 18.2731 7.24876 18.0319 7.20438C17.9263 7.18563 17.82 7.17001 17.7138 7.15751C17.6263 7.14688 17.5388 7.14126 17.4506 7.14001L17.4056 7.14063C17.3269 7.14376 17.2481 7.15438 17.1713 7.17188C17.0875 7.19126 17.0056 7.21626 16.9263 7.24813C16.7631 7.31188 16.6094 7.39751 16.4681 7.50126C16.4031 7.54938 16.3413 7.60126 16.2831 7.65813C16.2325 7.70688 16.1863 7.76001 16.145 7.81688C16.1125 7.86126 16.0856 7.90876 16.065 7.95938C16.0519 7.99063 16.0444 8.02438 16.0438 8.05813C16.0438 8.07376 16.0475 8.08876 16.0538 8.10313C16.0631 8.12126 16.0763 8.13751 16.0931 8.15001C16.1531 8.19813 16.2231 8.23313 16.2975 8.25376C16.3838 8.27751 16.4731 8.28876 16.5625 8.28813C16.6656 8.28688 16.7681 8.27688 16.8694 8.25813C16.9731 8.23876 17.075 8.21313 17.1756 8.18188C17.3363 8.13188 17.4931 8.07063 17.6444 7.99751C17.7388 7.95251 17.8381 7.91938 17.94 7.89938C18.0394 7.88063 18.1406 7.87126 18.2419 7.87188C18.3738 7.87313 18.5063 7.88438 18.6369 7.90563C18.7725 7.92626 18.9075 7.95063 19.0425 7.97751C19.1825 8.00501 19.3238 8.03001 19.465 8.05313C19.6144 8.07688 19.765 8.09376 19.9156 8.10376C20.0338 8.11001 20.1506 8.13126 20.2631 8.16688C20.3656 8.19938 20.4638 8.24626 20.5531 8.30626C20.6369 8.36313 20.7119 8.43126 20.7769 8.50876C20.8394 8.58376 20.8925 8.66501 20.9356 8.75188C20.9781 8.83688 21.0131 8.92501 21.0394 9.01626C21.0663 9.10688 21.0869 9.19876 21.1019 9.29126C21.1294 9.47126 21.1419 9.65251 21.1406 9.83438C21.1406 9.83501 21.1406 9.83501 21.1406 9.83501L21.1394 9.93626C21.1388 10.0119 21.1275 10.0875 21.1056 10.1606C21.0844 10.23 21.0519 10.295 21.0088 10.3538C20.9669 10.4094 20.9169 10.4575 20.86 10.4969C20.8063 10.5344 20.7481 10.565 20.6869 10.5881C20.6269 10.6119 20.565 10.63 20.5025 10.6438C20.4381 10.6581 20.3731 10.6694 20.3075 10.6781C20.1719 10.6944 20.0356 10.7063 19.8988 10.7144C19.7919 10.7213 19.6844 10.73 19.5775 10.7406C19.4725 10.7506 19.3688 10.7656 19.265 10.785C19.1975 10.7981 19.1306 10.8138 19.0644 10.8325C19.0131 10.8469 18.9625 10.8644 18.9131 10.885C18.8419 10.9138 18.7756 10.9544 18.7181 11.005C18.6606 11.0588 18.6113 11.1194 18.57 11.1863C18.5413 11.23 18.5144 11.2756 18.4888 11.3213C18.4581 11.3763 18.4275 11.4313 18.3975 11.4869C18.3281 11.6156 18.2563 11.7431 18.1819 11.8694C18.0194 12.1431 17.8531 12.415 17.6844 12.6856C17.6244 12.7813 17.565 12.8775 17.5069 12.9744C17.4894 13.0044 17.4719 13.0344 17.4556 13.0656C17.4469 13.0806 17.4394 13.0963 17.4331 13.1125C17.3994 13.1956 17.3388 13.265 17.2619 13.31C17.1856 13.3544 17.0988 13.3769 17.0106 13.3756C16.9225 13.3744 16.8356 13.3531 16.7569 13.3144C16.6694 13.2713 16.59 13.2131 16.5231 13.1425C16.5138 13.1338 16.5031 13.1275 16.4913 13.1231C16.4531 13.1081 16.4131 13.0969 16.3725 13.09C16.315 13.08 16.2569 13.0731 16.1981 13.0694C16.1288 13.065 16.0588 13.0631 15.9894 13.0631C15.8688 13.0638 15.7481 13.0675 15.6281 13.075C15.51 13.0819 15.3919 13.09 15.2738 13.0994C15.1506 13.11 15.0275 13.1175 14.9044 13.1219C14.8294 13.1244 14.7556 13.1438 14.6888 13.1788C14.6113 13.2194 14.5425 13.275 14.4869 13.3431C14.4194 13.425 14.3675 13.5188 14.3331 13.6194C14.2906 13.7444 14.2688 13.8756 14.2675 14.0081V14.0225C14.2675 14.1369 14.2938 14.2506 14.3431 14.3544C14.3919 14.4556 14.4581 14.5469 14.5388 14.6244C14.6119 14.6963 14.6963 14.7563 14.7881 14.8006C14.8256 14.8188 14.8644 14.8331 14.9038 14.8438C14.9325 14.8513 14.9613 14.8556 14.9906 14.8556C15.0006 14.8563 15.01 14.855 15.0194 14.8531C15.0438 14.8475 15.0675 14.8381 15.09 14.8263C15.1256 14.8081 15.16 14.7875 15.1925 14.7644C15.2731 14.7069 15.3519 14.6456 15.4269 14.5806C15.4931 14.5238 15.5613 14.4694 15.6325 14.4181C15.6669 14.3931 15.7031 14.3713 15.7413 14.3525C15.79 14.3281 15.8438 14.3138 15.8981 14.3119C15.9931 14.31 16.0825 14.3556 16.1375 14.4331C16.1706 14.4825 16.1925 14.5388 16.2013 14.5975C16.2081 14.6431 16.2113 14.6894 16.2106 14.7356C16.2094 14.8031 16.2063 14.8706 16.2006 14.9381C16.195 15.0081 16.1919 15.0781 16.1913 15.1475C16.1913 15.1813 16.1925 15.2144 16.1963 15.2475C16.1988 15.2706 16.2038 15.2931 16.2106 15.3156C16.2131 15.3225 16.2163 15.3294 16.2206 15.3356C16.2738 15.36 16.3281 15.3825 16.3825 15.4044C16.4588 15.4356 16.535 15.4681 16.61 15.5025C16.6919 15.54 16.77 15.5838 16.8444 15.6338C16.925 15.6869 16.9963 15.7538 17.0538 15.8313C17.1188 15.9188 17.1581 16.0225 17.1688 16.1306C17.17 16.1463 17.175 16.1619 17.1819 16.1763C17.1938 16.1988 17.2088 16.2194 17.2263 16.2375C17.2513 16.2644 17.2788 16.2881 17.3088 16.3094C17.345 16.3356 17.3831 16.3594 17.4225 16.3806C17.5119 16.4275 17.605 16.4675 17.7006 16.4994C17.7894 16.5294 17.8794 16.5544 17.9713 16.5738C17.9894 16.5775 18.0075 16.5794 18.0263 16.5794C18.0631 16.5788 18.1 16.5756 18.1363 16.5694C18.1844 16.5619 18.2325 16.5519 18.28 16.5394C18.4006 16.5081 18.5206 16.4731 18.6394 16.4356C18.7944 16.3863 18.9506 16.3413 19.1075 16.3C19.2781 16.2556 19.4519 16.2244 19.6269 16.2063C19.6588 16.2038 19.6906 16.2019 19.7219 16.2025C19.8394 16.2038 19.9569 16.2188 20.0713 16.2463C20.1981 16.2756 20.3225 16.3125 20.445 16.3569C20.5775 16.405 20.7081 16.4588 20.8369 16.5175C20.9694 16.5781 21.1006 16.6431 21.2294 16.7119C21.4756 16.8425 21.7138 16.9869 21.9431 17.1438C22.04 17.21 22.1338 17.28 22.225 17.3531C22.3006 17.4125 22.3713 17.4775 22.4375 17.5469C22.4944 17.6075 22.5456 17.6738 22.59 17.7438C22.6281 17.8031 22.6594 17.8663 22.685 17.9319C22.7063 17.9869 22.7231 18.0431 22.7356 18.1006C22.745 18.1456 22.7531 18.1913 22.76 18.2369C22.7638 18.2638 22.7688 18.2913 22.7744 18.3181C22.7775 18.3338 22.7819 18.3494 22.7875 18.3638C22.7906 18.3713 22.7944 18.3775 22.7988 18.3838C22.8056 18.3919 22.8138 18.3988 22.8231 18.405C22.8431 18.4181 22.8656 18.4288 22.8888 18.4356C22.93 18.4494 22.9725 18.46 23.0156 18.4681C23.0706 18.4781 23.1256 18.4863 23.1806 18.4931C23.2431 18.5006 23.3056 18.5075 23.3681 18.5144C23.5044 18.5269 23.6394 18.5444 23.7738 18.5675C23.8413 18.5794 23.9075 18.595 23.9731 18.6144C24.0394 18.6338 24.1025 18.6594 24.1631 18.6919C24.2475 18.7375 24.3156 18.8094 24.3556 18.8969C24.39 18.9744 24.4063 19.0588 24.4044 19.1431C24.4038 19.2013 24.3975 19.2588 24.3869 19.3156C24.3756 19.3744 24.3613 19.4325 24.3431 19.49C24.305 19.6106 24.2588 19.7281 24.205 19.8425C24.1519 19.9575 24.0944 20.0706 24.0338 20.1825C23.9794 20.2825 23.9238 20.3813 23.8669 20.4794C23.8294 20.5431 23.7881 20.6044 23.7425 20.6631C23.6913 20.7319 23.6375 20.7981 23.5819 20.8638C23.45 21.0181 23.3156 21.17 23.1794 21.32C23.0731 21.4375 22.9675 21.5556 22.8625 21.6744C22.7575 21.7938 22.655 21.915 22.555 22.0381C22.4613 22.1531 22.3719 22.2713 22.2869 22.3931C22.2144 22.4963 22.1488 22.6044 22.0913 22.7169C22.0613 22.7756 22.0275 22.8331 21.99 22.8875C21.95 22.9463 21.9075 23.0025 21.8619 23.0569C21.7631 23.175 21.6575 23.2869 21.545 23.3919C21.4238 23.5063 21.2988 23.6156 21.1694 23.7206C21.0369 23.8288 20.9019 23.9331 20.7638 24.0344C20.5106 24.2206 20.2513 24.3988 19.9863 24.5675C19.8838 24.6331 19.78 24.6975 19.6756 24.76C19.6038 24.8038 19.5306 24.8463 19.4569 24.8875C19.3606 24.94 19.265 24.9938 19.17 25.0488C19.0888 25.095 19.0094 25.1444 18.9313 25.1963C18.8681 25.2381 18.8081 25.2838 18.7519 25.3338C18.71 25.37 18.6725 25.4113 18.64 25.4569C18.5963 25.5219 18.5369 25.575 18.4675 25.6125C18.4006 25.6469 18.3263 25.665 18.2513 25.6644C18.1875 25.6638 18.1244 25.6519 18.065 25.6288C18.0075 25.6063 17.9544 25.575 17.9069 25.5363C17.8056 25.4556 17.7325 25.345 17.6981 25.2206C17.6856 25.1738 17.6794 25.1256 17.68 25.0775C17.6806 25.0275 17.6856 24.9775 17.6963 24.9288C17.7063 24.8806 17.7194 24.8331 17.7356 24.7869C17.7681 24.6944 17.8075 24.605 17.8544 24.5194C17.8969 24.44 17.9438 24.3638 17.9956 24.2906C18.0344 24.2325 18.0781 24.1781 18.1256 24.1275Z" fill="#3AD249"/>
<path d="M23.7587 8.665L23.9706 8.61125L24.0781 9.035L23.8662 9.08875C23.8487 9.09312 23.8312 9.09812 23.8137 9.10312C23.7887 9.11062 23.7637 9.11812 23.7387 9.12625C23.6662 9.14937 23.5937 9.17375 23.5225 9.2C23.3925 9.2475 23.2637 9.29625 23.135 9.3475C23.0775 9.37062 23.0181 9.38875 22.9575 9.4025C22.9012 9.41562 22.8437 9.42187 22.7856 9.4225C22.7187 9.4225 22.6519 9.4125 22.5875 9.3925C22.5281 9.37437 22.4719 9.34875 22.4187 9.31625C22.37 9.28625 22.3237 9.25312 22.2794 9.2175C22.2362 9.18187 22.1937 9.14625 22.1519 9.10937C22.0956 9.05937 22.0375 9.01125 21.9787 8.96437C21.9125 8.91187 21.8431 8.86375 21.7719 8.82C21.6837 8.76687 21.6006 8.70687 21.5237 8.63875C21.46 8.58312 21.4037 8.52 21.3569 8.45C21.3162 8.38875 21.285 8.32187 21.265 8.25187C21.2487 8.19187 21.2406 8.12937 21.2412 8.06687C21.2425 8.00812 21.2481 7.94937 21.2581 7.89062C21.2612 7.87062 21.2644 7.85 21.2656 7.82937C21.2675 7.805 21.2706 7.78062 21.2756 7.75625C21.2812 7.72875 21.2881 7.70125 21.2962 7.67437C21.3019 7.65562 21.3081 7.63625 21.315 7.6175C21.3231 7.59625 21.3312 7.57562 21.34 7.555C21.3637 7.49812 21.3906 7.44312 21.42 7.38937C21.4612 7.31375 21.5056 7.23875 21.5519 7.16562L21.6687 6.98062L22.0387 7.215L21.9212 7.39937C21.88 7.465 21.8412 7.53125 21.8037 7.59937C21.7819 7.64 21.7612 7.6825 21.7431 7.72562C21.7369 7.73937 21.7312 7.75437 21.7256 7.76875C21.7219 7.77937 21.7181 7.79062 21.715 7.80187C21.7106 7.815 21.7075 7.82812 21.705 7.84187C21.7031 7.84875 21.7025 7.855 21.7019 7.86187C21.6994 7.89625 21.695 7.93062 21.6894 7.965C21.6831 8.00062 21.6794 8.03687 21.6787 8.07312C21.6787 8.09375 21.6812 8.11437 21.6869 8.13437C21.6937 8.16 21.705 8.18375 21.72 8.20625C21.7462 8.24437 21.7769 8.27937 21.8119 8.31C21.8694 8.36062 21.9319 8.40625 21.9981 8.44562C22.0856 8.49875 22.17 8.5575 22.2506 8.62125C22.315 8.67312 22.3787 8.72625 22.4412 8.78062C22.4787 8.81375 22.5169 8.84625 22.5562 8.87812C22.585 8.90187 22.6156 8.92375 22.6475 8.94312C22.6694 8.95625 22.6925 8.96687 22.7169 8.975C22.7387 8.98125 22.7612 8.985 22.7837 8.985C22.81 8.98437 22.8356 8.98125 22.8612 8.97562C22.8994 8.9675 22.9369 8.95562 22.9731 8.94062C23.105 8.88875 23.2381 8.83812 23.3719 8.78875C23.4494 8.76062 23.5275 8.73375 23.6062 8.70875C23.635 8.7 23.6631 8.69125 23.6919 8.68312C23.7144 8.67625 23.7362 8.67062 23.7587 8.665Z" fill="#3AD249"/>
<path fill-rule="evenodd" clip-rule="evenodd" d="M17.1638 13.5969L17.1856 13.5944C17.1956 13.5931 17.2056 13.5931 17.2156 13.5931C17.275 13.595 17.3331 13.6119 17.3844 13.6425C17.4238 13.6656 17.4594 13.6937 17.4919 13.7262C17.5206 13.755 17.5488 13.7856 17.5744 13.8175C17.6013 13.85 17.6275 13.8831 17.6531 13.9162C17.7038 13.9819 17.7569 14.0456 17.8119 14.1075C17.8669 14.1681 17.9275 14.2237 17.9931 14.2725C18.0544 14.3144 18.1075 14.3675 18.15 14.4281C18.195 14.4925 18.22 14.5687 18.2219 14.6475C18.2225 14.7162 18.2025 14.7837 18.1656 14.8419C18.1331 14.8925 18.0894 14.935 18.0381 14.9669C17.9906 14.9962 17.9388 15.0181 17.8844 15.0312C17.8294 15.045 17.7731 15.0519 17.7163 15.0512C17.6463 15.0512 17.5769 15.0419 17.5094 15.0237C17.4356 15.0044 17.3644 14.9769 17.2969 14.9406C17.2606 14.9212 17.2244 14.9019 17.1875 14.8831C17.1163 14.8462 17.0456 14.8081 16.9756 14.7687C16.9106 14.7325 16.8488 14.6919 16.79 14.6469C16.7281 14.6006 16.675 14.5444 16.6331 14.4794C16.5869 14.4056 16.5619 14.3194 16.5619 14.2319C16.5631 14.1637 16.5763 14.0969 16.6013 14.0331C16.6244 13.97 16.6538 13.9094 16.6888 13.8519C16.7213 13.7975 16.7631 13.75 16.8125 13.7112C16.8581 13.6762 16.9094 13.6506 16.9644 13.635C17.0019 13.625 17.04 13.6175 17.0788 13.6119C17.1 13.6087 17.1213 13.605 17.1425 13.6C17.1494 13.5987 17.1569 13.5975 17.1638 13.5969ZM17.1844 14.0375C17.2025 14.0556 17.22 14.075 17.2356 14.0944C17.26 14.1237 17.2838 14.1537 17.3069 14.1837C17.3638 14.2575 17.4238 14.33 17.4863 14.3994C17.5569 14.4781 17.635 14.55 17.7194 14.6137H17.7188C17.6856 14.6137 17.6525 14.6094 17.6206 14.6006C17.58 14.59 17.54 14.5744 17.5031 14.5544C17.465 14.5344 17.4275 14.5144 17.3894 14.4944C17.3219 14.46 17.255 14.4237 17.1888 14.3862C17.1413 14.3606 17.0963 14.3306 17.0538 14.2981C17.0338 14.2831 17.0169 14.2656 17.0031 14.245C17.0013 14.2419 17 14.2381 17 14.2344C17.0006 14.2187 17.0038 14.2037 17.01 14.19C17.0238 14.1506 17.0419 14.1131 17.0631 14.0775C17.0675 14.0706 17.0731 14.0637 17.0794 14.0581C17.0806 14.0575 17.0813 14.0569 17.0825 14.0569C17.1019 14.0512 17.1213 14.0475 17.1413 14.045C17.1556 14.0425 17.17 14.0406 17.1844 14.0375Z" fill="#3AD249"/>
</g>
<defs>
<clipPath id="clip0_2213_26">
<rect width="32" height="32" fill="white"/>
</clipPath>
</defs>
</svg>
