<svg width="32" height="32" viewBox="0 0 32 32" fill="none" xmlns="http://www.w3.org/2000/svg">
<g clip-path="url(#clip0_2213_53)">
<path fill-rule="evenodd" clip-rule="evenodd" d="M4.96875 16C4.9675 14.5256 5.2625 13.0663 5.83625 11.7081C6.39188 10.3975 7.19438 9.20688 8.20125 8.20125C9.20688 7.19438 10.3975 6.39188 11.7075 5.83625C13.0656 5.2625 14.5256 4.9675 16 4.96875C17.4744 4.9675 18.9344 5.2625 20.2925 5.83625C21.6025 6.39188 22.7931 7.19438 23.7988 8.20125C24.8056 9.20688 25.6081 10.3975 26.1638 11.7075C26.7375 13.0656 27.0325 14.5256 27.0313 16C27.0325 17.4744 26.7375 18.9344 26.1638 20.2925C25.6081 21.6025 24.8056 22.7931 23.7988 23.7988C22.7931 24.8056 21.6025 25.6081 20.2925 26.1638C18.9344 26.7375 17.4744 27.0325 16 27.0313C14.5256 27.0325 13.0656 26.7375 11.7075 26.1638C10.3975 25.6081 9.20688 24.8056 8.20125 23.7988C7.19438 22.7931 6.39188 21.6025 5.83625 20.2925C5.2625 18.9344 4.9675 17.4744 4.96875 16ZM5.90625 16C5.905 14.6513 6.175 13.3156 6.7 12.0725C7.20813 10.8738 7.94313 9.78438 8.86438 8.86438C9.78438 7.94313 10.8738 7.20813 12.0731 6.7C13.3156 6.175 14.6513 5.905 16 5.90625C17.3488 5.905 18.6844 6.175 19.9269 6.7C21.1263 7.20813 22.2156 7.94313 23.1356 8.86438C24.0569 9.78438 24.7919 10.8738 25.3 12.0731C25.825 13.3156 26.095 14.6513 26.0938 16C26.095 17.3488 25.825 18.6844 25.3 19.9269C24.7919 21.1263 24.0569 22.2156 23.1356 23.1356C22.2156 24.0569 21.1263 24.7919 19.9269 25.3C18.6844 25.825 17.3488 26.095 16 26.0938C14.6513 26.095 13.3156 25.825 12.0731 25.3C10.8738 24.7919 9.78438 24.0569 8.86438 23.1356C7.94313 22.2156 7.20813 21.1263 6.7 19.9269C6.175 18.6844 5.905 17.3488 5.90625 16Z" fill="#E12525"/>
<path d="M5.53501 15.0119L5.33563 14.9219L5.51563 14.5231L5.71501 14.6131C6.03563 14.7581 6.36376 14.8856 6.69813 14.9956C7.00563 15.0969 7.31813 15.1806 7.63501 15.2456C7.93438 15.3075 8.23751 15.3525 8.54188 15.3794C8.83751 15.4062 9.13376 15.415 9.43063 15.4062C9.52313 15.4031 9.61563 15.3912 9.70626 15.3719C9.81251 15.3487 9.91688 15.3206 10.0194 15.2869C10.135 15.2487 10.25 15.2075 10.3638 15.1625C10.4881 15.1137 10.6119 15.0644 10.7356 15.0131C10.91 14.9412 11.0856 14.8712 11.2619 14.8037C11.4494 14.7325 11.64 14.6675 11.8319 14.6106C12.0331 14.5506 12.2381 14.5025 12.445 14.4675C12.6613 14.4306 12.8806 14.4119 13.1 14.4112C13.4944 14.4112 13.8863 14.4769 14.2588 14.6056C14.6975 14.7575 15.1356 14.9106 15.5731 15.0669C15.8275 15.1587 16.0838 15.2481 16.34 15.3337C16.5194 15.3937 16.7013 15.4456 16.885 15.49C17.0888 15.5362 17.2944 15.5756 17.5006 15.6069C17.8256 15.6569 18.1506 15.7044 18.4763 15.7494L18.7181 15.7831C19.3306 15.8694 19.9488 15.9119 20.5675 15.9106C21.0625 15.9112 21.5569 15.8844 22.0488 15.8312C22.5513 15.7775 23.0494 15.6944 23.5419 15.5812C24.0338 15.4687 24.5175 15.3219 24.9894 15.1425C25.455 14.9656 25.905 14.7506 26.335 14.4994L26.5238 14.3887L26.7444 14.7669L26.5556 14.8769C26.105 15.1406 25.6331 15.3662 25.145 15.5512C24.6544 15.7381 24.1513 15.8906 23.6394 16.0075C23.1306 16.1244 22.615 16.2106 22.0956 16.2662C21.5881 16.3212 21.0781 16.3487 20.5681 16.3481C19.9288 16.3494 19.29 16.3056 18.6569 16.2169L18.4156 16.1825C18.0881 16.1375 17.7613 16.0894 17.435 16.0394C17.2169 16.0062 17 15.965 16.785 15.9162C16.5881 15.8687 16.3931 15.8131 16.2013 15.7487C15.9419 15.6619 15.6831 15.5719 15.4256 15.4787C14.99 15.3231 14.5531 15.17 14.1163 15.0194C13.7894 14.9069 13.4463 14.8494 13.1006 14.8487C12.9056 14.8494 12.7106 14.8662 12.5181 14.8987C12.3288 14.9312 12.1413 14.9744 11.9569 15.0294C11.775 15.0837 11.5956 15.145 11.4181 15.2125C11.2456 15.2787 11.0731 15.3469 10.9025 15.4175C10.7763 15.4694 10.65 15.52 10.5231 15.57C10.4025 15.6175 10.28 15.6612 10.1563 15.7019C10.0388 15.7412 9.91938 15.7737 9.79876 15.7994C9.68188 15.8244 9.56376 15.8394 9.44438 15.8437C9.13063 15.8525 8.81626 15.8431 8.50313 15.8156C8.18188 15.7869 7.86251 15.7394 7.54626 15.6744C7.21313 15.6056 6.88438 15.5175 6.56126 15.4112C6.21251 15.2962 5.87001 15.1631 5.53501 15.0119Z" fill="#E12525"/>
<path d="M26.4006 15.93L26.595 15.8306L26.7944 16.22L26.5994 16.32C26.4888 16.3762 26.3738 16.4237 26.255 16.4619C26.1088 16.5106 25.96 16.5531 25.81 16.5887C25.6325 16.6319 25.4538 16.6706 25.2738 16.7037C25.0706 16.7419 24.8669 16.7756 24.6625 16.8056C24.2044 16.8719 23.7444 16.9231 23.2831 16.9594C22.795 16.9987 22.3063 17.0231 21.8169 17.0312C21.5181 17.0375 21.2194 17.0581 20.9225 17.0937C20.5956 17.1325 20.2694 17.1812 19.9444 17.24C19.595 17.3025 19.2469 17.3706 18.8994 17.4437C18.5338 17.5212 18.1681 17.6006 17.8031 17.6819C17.3063 17.7925 16.8075 17.8994 16.3088 18.0025C15.8025 18.1069 15.2944 18.1987 14.7838 18.2787C14.505 18.3219 14.2231 18.3444 13.9413 18.345C13.6663 18.345 13.3919 18.3225 13.1213 18.2769C12.8756 18.2356 12.6331 18.1769 12.3963 18.1012C12.1763 18.0306 11.96 17.95 11.7481 17.8594C11.55 17.7744 11.3531 17.6856 11.1575 17.5937C11.0113 17.525 10.8638 17.4587 10.7163 17.3931C10.575 17.3312 10.4319 17.2737 10.2869 17.2212C10.1469 17.1712 10.0044 17.1294 9.86 17.0956C9.71625 17.0625 9.57 17.0406 9.4225 17.0306C9.28188 17.0212 9.14063 17.01 9 16.9962C8.84375 16.9812 8.6875 16.9637 8.53125 16.9444C8.42 16.93 8.30813 16.9156 8.19688 16.8994C8.0775 16.8825 7.9575 16.8644 7.83875 16.845C7.46688 16.7856 7.09688 16.7175 6.72875 16.6412C6.27875 16.5481 5.83125 16.4469 5.385 16.3375L5.17313 16.285L5.2775 15.8606L5.49 15.9125C5.93 16.0206 6.37313 16.1212 6.81688 16.2131C7.17938 16.2881 7.5425 16.3544 7.9075 16.4131C8.02438 16.4319 8.14188 16.4494 8.25875 16.4662C8.3675 16.4819 8.47688 16.4962 8.58563 16.51C8.7375 16.5294 8.89 16.5462 9.0425 16.5606C9.17875 16.5737 9.31563 16.585 9.4525 16.5944C9.6225 16.6062 9.79188 16.6312 9.95813 16.6694C10.12 16.7069 10.2788 16.7537 10.435 16.81C10.5894 16.8656 10.7425 16.9269 10.8925 16.9931C11.0438 17.0594 11.1938 17.1275 11.3431 17.1975C11.5344 17.2875 11.7269 17.3737 11.9206 17.4569C12.12 17.5425 12.3231 17.6181 12.5294 17.6844C12.7469 17.7537 12.9688 17.8075 13.1938 17.8456C13.4406 17.8869 13.69 17.9075 13.9406 17.9075C14.2 17.9069 14.4594 17.8862 14.7163 17.8462C15.22 17.7675 15.7213 17.6769 16.2206 17.5737C16.7169 17.4712 17.2131 17.365 17.7081 17.2544C18.075 17.1731 18.4419 17.0937 18.8088 17.0162C19.1606 16.9412 19.5138 16.8725 19.8675 16.8094C20.2006 16.7494 20.535 16.6994 20.8713 16.6594C21.1825 16.6225 21.495 16.6 21.8081 16.5937C22.2888 16.5856 22.7694 16.5619 23.2481 16.5231C23.7 16.4875 24.1506 16.4375 24.5994 16.3725C24.7981 16.3437 24.9963 16.3106 25.1938 16.2737C25.3663 16.2419 25.5375 16.205 25.7075 16.1637C25.8463 16.1306 25.9838 16.0912 26.1194 16.0462C26.2163 16.015 26.31 15.9762 26.4006 15.93ZM25.5638 12.01L25.6788 11.8237L26.0513 12.0537L25.9363 12.24C25.8838 12.3244 25.8238 12.4031 25.7556 12.4756C25.6713 12.5656 25.5806 12.65 25.4838 12.7262C25.4106 12.7844 25.335 12.8394 25.2569 12.8906C25.1625 12.9525 25.0663 13.0112 24.9681 13.0662C24.8963 13.1069 24.8238 13.1456 24.75 13.1825C24.6663 13.225 24.5813 13.2662 24.4956 13.3056C24.4344 13.3337 24.3731 13.3612 24.3113 13.3875C24.2431 13.4169 24.175 13.4456 24.1069 13.4731C23.9025 13.5562 23.6956 13.6331 23.4875 13.705C23.2225 13.7956 22.955 13.8806 22.6863 13.96C22.3363 14.0619 21.9788 14.1344 21.6163 14.1775C21.2469 14.2225 20.875 14.2437 20.5031 14.2425C20.0313 14.2412 19.56 14.2131 19.0913 14.1594C18.6331 14.1075 18.1769 14.0387 17.7238 13.9525C17.3019 13.8725 16.8819 13.7831 16.4638 13.6837C16.1013 13.5969 15.7394 13.5075 15.3781 13.4144C15.1931 13.3669 15.0088 13.3206 14.8231 13.275C14.6119 13.2244 14.3975 13.1881 14.1813 13.1675C13.9513 13.1444 13.72 13.1337 13.4888 13.1344C13.24 13.135 12.9913 13.145 12.7438 13.1637C12.4881 13.1825 12.2331 13.2081 11.9788 13.24C11.7225 13.2719 11.4663 13.3075 11.2106 13.3469C10.9588 13.3856 10.7069 13.4256 10.455 13.4669C10.2431 13.5012 10.0319 13.535 9.82063 13.5681C9.61938 13.5994 9.4175 13.6281 9.21563 13.6544C8.9225 13.6919 8.62688 13.7119 8.33125 13.715C8.04563 13.7175 7.75938 13.7025 7.475 13.67C7.19188 13.6375 6.91125 13.5881 6.63438 13.5219C6.35125 13.4537 6.07188 13.3687 5.79875 13.2675L5.59375 13.1919L5.74563 12.7812L5.95125 12.8575C6.20813 12.9525 6.47 13.0325 6.73688 13.0962C6.99625 13.1587 7.25938 13.205 7.52438 13.2356C7.79125 13.2656 8.05938 13.2794 8.3275 13.2775C8.60563 13.275 8.88375 13.2556 9.15938 13.2206C9.3575 13.195 9.55563 13.1669 9.75313 13.1356C9.96375 13.1031 10.1738 13.0694 10.3844 13.035C10.6375 12.9937 10.8906 12.9537 11.1444 12.9144C11.4038 12.8744 11.6644 12.8381 11.925 12.8056C12.1863 12.7731 12.4481 12.7469 12.7106 12.7275C12.9688 12.7075 13.2281 12.6975 13.4875 12.6969C13.7331 12.6962 13.9794 12.7075 14.2238 12.7319C14.4606 12.755 14.6956 12.7944 14.9269 12.85C15.1138 12.8962 15.3006 12.9431 15.4869 12.9906C15.8456 13.0831 16.205 13.1719 16.565 13.2581C16.9763 13.3556 17.39 13.4437 17.805 13.5225C18.2475 13.6069 18.6931 13.6744 19.1406 13.725C19.5931 13.7769 20.0488 13.8037 20.5044 13.805C20.8588 13.8062 21.2125 13.7856 21.5644 13.7431C21.9025 13.7031 22.2369 13.635 22.5638 13.54C22.8256 13.4625 23.0869 13.3794 23.3456 13.2906C23.5463 13.2219 23.7456 13.1475 23.9425 13.0675C24.0081 13.0412 24.0731 13.0137 24.1381 12.9862C24.1969 12.9606 24.255 12.935 24.3131 12.9081C24.3938 12.8712 24.4731 12.8325 24.5525 12.7925C24.62 12.7581 24.6875 12.7225 24.7538 12.685C24.8431 12.635 24.9306 12.5812 25.0163 12.525C25.0838 12.4806 25.1488 12.4337 25.2119 12.3837C25.2919 12.32 25.3669 12.2512 25.4363 12.1769C25.4844 12.1256 25.5269 12.0694 25.5638 12.01ZM23.8675 9.15124L23.9663 8.95624L24.3563 9.15374L24.2575 9.34874C24.2131 9.43624 24.1569 9.51749 24.0906 9.58999C24.0225 9.66374 23.9469 9.73062 23.865 9.78874C23.7775 9.85062 23.6856 9.90624 23.59 9.95499C23.485 10.0081 23.3781 10.0562 23.2688 10.0994C23.1481 10.1469 23.0263 10.1906 22.9025 10.2306C22.7663 10.275 22.6288 10.3169 22.4913 10.3562C22.175 10.4462 21.8575 10.5319 21.5388 10.6131C21.3363 10.6662 21.1331 10.72 20.9306 10.7737C20.6975 10.835 20.46 10.8775 20.22 10.9019C19.9588 10.9294 19.6956 10.9419 19.4331 10.9412C18.9913 10.9394 18.55 10.9112 18.1119 10.8575C17.665 10.8044 17.2206 10.7306 16.78 10.6369C16.3656 10.55 15.9556 10.4444 15.5506 10.3212C15.3688 10.2656 15.1888 10.205 15.01 10.14C14.85 10.0819 14.6913 10.0187 14.5356 9.94937C14.3475 9.86437 14.1519 9.79749 13.9513 9.75062C13.7913 9.71499 13.6275 9.69687 13.4631 9.69687C13.3231 9.69812 13.1838 9.70874 13.045 9.72937C12.8944 9.75249 12.7438 9.77874 12.5944 9.80874C12.3719 9.85312 12.1481 9.89062 11.9238 9.92187C11.6444 9.95874 11.3625 9.97687 11.0806 9.97687C10.9669 9.97687 10.8531 9.97437 10.7394 9.96874C10.4538 9.95437 10.1694 9.92437 9.88688 9.87874C9.68313 9.84562 9.48125 9.79624 9.285 9.73124C9.14688 9.68499 9.01188 9.62874 8.88188 9.56312C8.775 9.50874 8.67313 9.44374 8.5775 9.36999C8.49563 9.30624 8.41938 9.23499 8.35125 9.15687C8.28688 9.08374 8.23125 9.00374 8.18375 8.91874L8.0775 8.72749L8.46 8.51499L8.56625 8.70624C8.59813 8.76437 8.63688 8.81874 8.68063 8.86874C8.73063 8.92562 8.78563 8.97812 8.84563 9.02437C8.91875 9.08124 8.9975 9.13062 9.08 9.17312C9.19063 9.22874 9.305 9.27687 9.4225 9.31562C9.59688 9.37374 9.77563 9.41749 9.9575 9.44687C10.2231 9.48999 10.4919 9.51812 10.7606 9.53124C10.8675 9.53687 10.9738 9.53937 11.0806 9.53937C11.3431 9.53937 11.605 9.52249 11.865 9.48812C12.0806 9.45812 12.295 9.42187 12.5088 9.37937C12.665 9.34812 12.8225 9.32062 12.98 9.29687C13.1394 9.27312 13.3006 9.26062 13.4619 9.25937C13.6594 9.25937 13.8556 9.28124 14.0481 9.32437C14.2775 9.37749 14.5006 9.45312 14.7144 9.55062C14.8606 9.61499 15.0094 9.67437 15.1594 9.72874C15.3306 9.79124 15.5038 9.84937 15.6788 9.90249C16.0713 10.0225 16.4688 10.1244 16.8706 10.2087C17.2981 10.3 17.73 10.3712 18.1644 10.4231C18.5856 10.475 19.01 10.5019 19.435 10.5037C19.6819 10.5044 19.9294 10.4925 20.1756 10.4669C20.3925 10.445 20.6081 10.4062 20.8194 10.3512C21.0225 10.2969 21.2256 10.2431 21.4294 10.19C21.7444 10.1087 22.0588 10.0244 22.3713 9.93562C22.5044 9.89749 22.6363 9.85749 22.7675 9.81437C22.8825 9.77749 22.9963 9.73624 23.1088 9.69187C23.205 9.65437 23.2994 9.61187 23.3913 9.56499C23.4681 9.52562 23.5419 9.48124 23.6119 9.43187C23.6688 9.39124 23.7213 9.34562 23.7688 9.29374C23.8081 9.25124 23.8413 9.20312 23.8675 9.15124ZM22.2594 7.18937L22.445 7.07374L22.6763 7.44499L22.4906 7.56062C22.4619 7.57874 22.4313 7.59499 22.3994 7.60874C22.3638 7.62437 22.3269 7.63937 22.29 7.65312C22.1925 7.68874 22.0931 7.72124 21.9931 7.75062C21.7119 7.83249 21.4269 7.90374 21.14 7.96374C20.7888 8.03874 20.4344 8.09937 20.0788 8.14624C19.895 8.16999 19.7106 8.18937 19.5256 8.20312C19.3469 8.21687 19.1675 8.22374 18.9881 8.22437C18.7994 8.22562 18.6106 8.21437 18.4231 8.19249C18.3369 8.18124 18.2506 8.16687 18.1656 8.14812C18.085 8.13062 18.0056 8.10874 17.9281 8.08124C17.8494 8.05437 17.7694 8.03124 17.6888 8.01374C17.5994 7.99374 17.5088 7.97812 17.4181 7.96687C17.2125 7.94187 17.0056 7.92999 16.7988 7.93124C16.6025 7.93187 16.4056 7.93937 16.2094 7.95312C16.0019 7.96749 15.7938 7.98687 15.5869 8.01062C15.3738 8.03437 15.1606 8.06124 14.9488 8.09062C14.7369 8.11937 14.525 8.14937 14.3131 8.18062C14.1019 8.21124 13.8906 8.24124 13.6794 8.27062C13.4819 8.29749 13.2838 8.32187 13.085 8.34249C12.8269 8.36937 12.5663 8.37312 12.3069 8.35499C12.0538 8.33687 11.8031 8.29687 11.5569 8.23437C11.3025 8.16937 11.0544 8.08249 10.8156 7.97374C10.555 7.85499 10.3044 7.71562 10.0663 7.55687L9.88438 7.43562L10.1269 7.07187L10.3088 7.19312C10.5275 7.33874 10.7575 7.46687 10.9969 7.57562C11.2119 7.67312 11.4356 7.75187 11.665 7.80999C11.8856 7.86624 12.1106 7.90249 12.3381 7.91874C12.5719 7.93499 12.8069 7.93124 13.04 7.90749C13.2338 7.88687 13.4269 7.86374 13.62 7.83687C13.83 7.80812 14.04 7.77812 14.25 7.74749C14.4625 7.71687 14.6756 7.68624 14.8888 7.65687C15.1044 7.62749 15.3206 7.59999 15.5375 7.57562C15.7506 7.55124 15.9644 7.53187 16.1788 7.51687C16.3844 7.50187 16.5906 7.49437 16.7969 7.49374C17.0225 7.49249 17.2475 7.50562 17.4719 7.53249C17.5763 7.54562 17.68 7.56374 17.7825 7.58624C17.8806 7.60812 17.9775 7.63562 18.0719 7.66874C18.1331 7.68937 18.195 7.70687 18.2581 7.72062C18.33 7.73624 18.4031 7.74874 18.4763 7.75812C18.6456 7.77812 18.8156 7.78749 18.9863 7.78687C19.155 7.78624 19.3244 7.77937 19.4925 7.76687C19.6694 7.75312 19.8463 7.73499 20.0219 7.71249C20.3669 7.66749 20.7094 7.60812 21.0494 7.53562C21.3256 7.47812 21.6 7.40937 21.8713 7.33062C21.9613 7.30374 22.0506 7.27437 22.1394 7.24249C22.1681 7.23187 22.1963 7.21999 22.2238 7.20749C22.2363 7.20249 22.2481 7.19624 22.2594 7.18937Z" fill="#E12525"/>
<path fill-rule="evenodd" clip-rule="evenodd" d="M17.5419 18.4356C17.5681 18.4194 17.595 18.4044 17.6225 18.3913C17.6556 18.375 17.69 18.3594 17.725 18.3444C17.8219 18.3031 17.92 18.2644 18.0188 18.2288C18.3088 18.1231 18.6031 18.03 18.9006 17.9494C19.2763 17.8463 19.6563 17.7619 20.0406 17.6975C20.2444 17.6638 20.4494 17.6369 20.6556 17.6175C20.8606 17.5981 21.0669 17.5875 21.2731 17.5875C21.435 17.5869 21.5975 17.5944 21.7594 17.61C21.9906 17.6313 22.2206 17.665 22.4481 17.7094C22.5406 17.7281 22.6325 17.75 22.7238 17.775C22.8019 17.7963 22.8794 17.8219 22.955 17.8506C23.0206 17.875 23.0838 17.9044 23.1456 17.9381C23.2006 17.9675 23.2519 18.0031 23.2994 18.0438C23.3469 18.0838 23.3869 18.1319 23.4175 18.1856C23.4506 18.245 23.4688 18.3125 23.4688 18.3806C23.4675 18.4625 23.4419 18.5425 23.3956 18.61C23.3538 18.6713 23.3013 18.725 23.2406 18.7688C23.1763 18.8163 23.1069 18.8575 23.0344 18.8919C22.9494 18.9331 22.8619 18.9688 22.7719 18.9988C22.66 19.0369 22.5469 19.0713 22.4325 19.1019C22.2975 19.1388 22.1619 19.1731 22.025 19.2044C21.71 19.2769 21.3931 19.3394 21.0738 19.3925C20.7375 19.4494 20.3994 19.4956 20.0594 19.5313C19.8981 19.5481 19.7363 19.5613 19.5738 19.5713C19.425 19.5806 19.2756 19.5856 19.1256 19.5856C18.9938 19.5863 18.8613 19.5813 18.73 19.5694C18.6169 19.56 18.505 19.5413 18.3956 19.5131C18.2519 19.4756 18.1113 19.4288 17.9738 19.3738C17.865 19.3313 17.7606 19.2781 17.6619 19.2163C17.62 19.19 17.58 19.1606 17.5425 19.1281C17.5075 19.0988 17.475 19.0656 17.4463 19.03C17.4175 18.9944 17.3938 18.9544 17.3756 18.9119C17.3563 18.8656 17.3456 18.8156 17.3456 18.765C17.3456 18.6938 17.3669 18.6244 17.4063 18.565C17.4419 18.5131 17.4881 18.4688 17.5419 18.4356ZM23.0206 18.3813C23.0094 18.3938 22.9969 18.4056 22.9831 18.4156C22.94 18.4469 22.8944 18.4744 22.8463 18.4969C22.7769 18.5306 22.7056 18.5594 22.6325 18.5844C22.5288 18.6194 22.4238 18.6513 22.3181 18.68C22.1881 18.7156 22.0581 18.7481 21.9275 18.7781C21.6206 18.8488 21.3119 18.9094 21.0013 18.9613C20.6738 19.0169 20.345 19.0619 20.0144 19.0963C19.8588 19.1125 19.7031 19.125 19.5469 19.1344C19.4063 19.1431 19.265 19.1481 19.1244 19.1481C19.005 19.1488 18.8856 19.1438 18.7663 19.1331C18.6788 19.1263 18.5913 19.1119 18.5056 19.09C18.38 19.0569 18.2563 19.0156 18.135 18.9669C18.0513 18.9344 17.9713 18.8938 17.895 18.8463C17.8706 18.8306 17.8469 18.8131 17.825 18.7944C17.8213 18.7913 17.8175 18.7881 17.8138 18.785C17.8413 18.7713 17.8688 18.7588 17.8969 18.7469C17.9863 18.7088 18.0769 18.6731 18.1681 18.64C18.4469 18.5388 18.73 18.4494 19.0163 18.3719C19.3769 18.2719 19.7431 18.1913 20.1125 18.1294C20.3063 18.0969 20.5013 18.0713 20.6969 18.0531C20.8888 18.0344 21.0813 18.025 21.2738 18.025C21.4219 18.0244 21.5706 18.0313 21.7181 18.0456C21.9344 18.0656 22.15 18.0969 22.3631 18.1388C22.4456 18.155 22.5269 18.1744 22.6075 18.1969C22.6725 18.2144 22.7369 18.2356 22.8 18.2594C22.8469 18.2775 22.8925 18.2981 22.9369 18.3225C22.965 18.3375 22.9913 18.3556 23.0156 18.3769C23.0175 18.3781 23.0188 18.3794 23.0206 18.3813ZM13.1806 17.24L13.1256 17.2413C13.1238 17.2413 13.1219 17.2413 13.1206 17.2413C13.0331 17.2413 12.9463 17.2356 12.86 17.2244C12.7656 17.2131 12.6719 17.1975 12.5788 17.1775C12.3781 17.135 12.1813 17.0763 11.99 17.0013C11.8938 16.9638 11.8 16.9213 11.7075 16.875C11.6188 16.8294 11.5325 16.7788 11.4494 16.7231C11.3706 16.6694 11.2963 16.6088 11.2275 16.5425C11.1606 16.4775 11.1031 16.4038 11.0563 16.3238C11.0231 16.2669 11.0056 16.2025 11.0063 16.1363C11.0088 16.045 11.0425 15.9575 11.1013 15.8875C11.15 15.8281 11.2081 15.7763 11.2731 15.735C11.3425 15.69 11.4144 15.65 11.49 15.6169C11.5738 15.5788 11.6594 15.5456 11.7463 15.5169C11.9388 15.4538 12.1356 15.405 12.3356 15.3719C12.5363 15.3363 12.7394 15.3181 12.9431 15.3169C12.9956 15.3163 13.0481 15.3181 13.1 15.3213C13.3306 15.3363 13.5588 15.3788 13.78 15.4475C13.975 15.5069 14.1638 15.5863 14.3425 15.6844C14.42 15.7269 14.4944 15.7731 14.5669 15.8238C14.63 15.8681 14.6906 15.9163 14.7469 15.9688C14.7975 16.015 14.8431 16.0663 14.8825 16.1219C14.9019 16.1494 14.9181 16.1788 14.9325 16.2094C14.9475 16.2425 14.9581 16.2781 14.9638 16.3144C14.965 16.3206 14.9656 16.3269 14.9663 16.3325L14.9681 16.3631C14.9688 16.37 14.9688 16.3769 14.9688 16.3831C14.9669 16.4763 14.9369 16.5663 14.8838 16.6425C14.835 16.7106 14.7756 16.77 14.7069 16.8175C14.6381 16.8669 14.565 16.9094 14.4881 16.9444C14.4063 16.9825 14.3225 17.0156 14.2369 17.0444C14.0588 17.1031 13.8769 17.1494 13.6919 17.1813C13.525 17.2125 13.3556 17.2319 13.1863 17.24C13.1844 17.24 13.1825 17.24 13.1806 17.24ZM11.4594 16.1431C11.475 16.1275 11.4925 16.1138 11.5113 16.1025C11.5613 16.0694 11.6138 16.0406 11.6688 16.0163C11.7388 15.9844 11.8106 15.9563 11.8831 15.9325C12.055 15.8756 12.2313 15.8325 12.4094 15.8031C12.5863 15.7719 12.7656 15.755 12.945 15.7544C12.9875 15.7538 13.03 15.7556 13.0725 15.7581C13.2688 15.7706 13.4631 15.8069 13.6513 15.8656C13.8181 15.9163 13.9794 15.9844 14.1325 16.0681C14.1956 16.1031 14.2569 16.1413 14.3163 16.1825C14.3638 16.2156 14.4088 16.2519 14.4513 16.2913C14.4788 16.3163 14.5031 16.3438 14.5244 16.3731C14.5263 16.3763 14.5281 16.3794 14.53 16.3825C14.5288 16.385 14.5275 16.3875 14.5263 16.39C14.5069 16.4175 14.4825 16.4413 14.455 16.46C14.4081 16.4938 14.3575 16.5231 14.3044 16.5475C14.2375 16.5788 14.1694 16.6056 14.0994 16.6288C13.9406 16.6819 13.7788 16.7225 13.6138 16.7506C13.4669 16.7781 13.3181 16.7956 13.1688 16.8031L13.12 16.8038C13.0513 16.8038 12.9819 16.7988 12.9138 16.7906C12.8319 16.7806 12.7506 16.7669 12.6694 16.7494C12.4925 16.7119 12.3181 16.66 12.1494 16.5938C12.0663 16.5613 11.985 16.525 11.9056 16.4844C11.8325 16.4475 11.7619 16.4063 11.6944 16.36C11.6369 16.3213 11.5825 16.2775 11.5325 16.2288C11.5056 16.2025 11.4813 16.1738 11.4594 16.1431Z" fill="#E12525"/>
<path d="M26.0063 18.38L26.155 18.22L26.4756 18.5175L26.3269 18.6775C26.1581 18.8594 25.9825 19.035 25.8013 19.2044C25.5863 19.4056 25.3663 19.6019 25.1413 19.7925C25.0219 19.8925 24.8931 19.9806 24.7569 20.0569C24.6119 20.1381 24.4606 20.2087 24.3056 20.2687C24.1388 20.3337 23.9681 20.3894 23.7956 20.4362C23.6113 20.4869 23.4244 20.53 23.2369 20.565C23.0381 20.6031 22.8381 20.6344 22.6375 20.6594C22.4281 20.6856 22.2181 20.7069 22.0081 20.7231C21.5713 20.755 21.1338 20.7706 20.6963 20.77C20.22 20.7694 19.7438 20.7537 19.2681 20.7237C18.825 20.6969 18.3825 20.6575 17.9413 20.6069C17.5663 20.5644 17.1925 20.5112 16.82 20.4475C16.6694 20.4212 16.5188 20.3925 16.3688 20.3606C16.2469 20.335 16.1256 20.3062 16.0056 20.2737C15.8594 20.2344 15.7106 20.2031 15.5606 20.18C15.3938 20.1544 15.225 20.135 15.0563 20.1225C14.8706 20.1081 14.685 20.0981 14.4994 20.0931C14.2981 20.0875 14.0975 20.085 13.8963 20.0856C13.5788 20.0862 13.2613 20.0894 12.9438 20.095C12.5819 20.1012 12.2194 20.1044 11.8569 20.1056C11.4344 20.1062 11.0119 20.0975 10.59 20.0781C10.1538 20.0587 9.71876 20.0212 9.28563 19.9669C8.81876 19.9087 8.35626 19.8181 7.90251 19.6962C7.55188 19.6019 7.20876 19.4825 6.87563 19.3394C6.63001 19.2331 6.39188 19.1112 6.16188 18.9744C6.01126 18.8831 5.86438 18.7869 5.72063 18.6856C5.67813 18.655 5.63501 18.6262 5.59126 18.5981C5.58313 18.5931 5.57438 18.5881 5.56563 18.5837L5.70563 18.2994C5.68563 18.2887 5.66376 18.2819 5.64063 18.2781L5.73813 18.2937L5.44438 18.1237L5.66001 18.1594C5.69438 18.1644 5.72751 18.1756 5.75813 18.1906C5.78188 18.2025 5.80438 18.215 5.82688 18.2294C5.87688 18.2612 5.92563 18.2944 5.97438 18.3294C6.10876 18.4237 6.24626 18.5144 6.38688 18.5994C6.60001 18.7262 6.82126 18.8394 7.04876 18.9375C7.36313 19.0725 7.68626 19.185 8.01626 19.2737C8.45063 19.3906 8.89313 19.4775 9.33938 19.5331C9.76126 19.5862 10.185 19.6219 10.61 19.6412C11.025 19.66 11.44 19.6687 11.8556 19.6681C12.2156 19.6669 12.5763 19.6637 12.9369 19.6575C13.2563 19.6519 13.5756 19.6487 13.8956 19.6481C14.1006 19.6475 14.3063 19.6506 14.5113 19.6562C14.7044 19.6612 14.8975 19.6712 15.09 19.6862C15.2694 19.7 15.4488 19.7206 15.6269 19.7475C15.7931 19.7731 15.9575 19.8075 16.1194 19.8512C16.2319 19.8819 16.345 19.9087 16.4588 19.9325C16.6031 19.9631 16.7488 19.9912 16.8944 20.0162C17.2581 20.0781 17.6238 20.1306 17.9913 20.1719C18.425 20.2219 18.86 20.2606 19.2956 20.2875C19.7625 20.3169 20.2294 20.3319 20.6975 20.3325C21.1238 20.3331 21.55 20.3181 21.975 20.2869C22.1781 20.2712 22.3813 20.2506 22.5831 20.2256C22.7744 20.2012 22.9656 20.1712 23.155 20.1356C23.3319 20.1019 23.5075 20.0619 23.6806 20.0144C23.8388 19.9712 23.995 19.92 24.1475 19.8606C24.2838 19.8081 24.4163 19.7456 24.5444 19.6744C24.6556 19.6125 24.7613 19.54 24.8588 19.4575C25.0781 19.2719 25.2931 19.0812 25.5025 18.885C25.6769 18.7225 25.8444 18.5544 26.0063 18.38ZM24.7056 21.8094L24.8963 21.7025L25.11 22.0837L24.9194 22.1906C24.3394 22.5162 23.7406 22.8062 23.1256 23.0594C22.655 23.2531 22.17 23.4087 21.6744 23.5256C21.5256 23.56 21.375 23.5844 21.2225 23.5987C21.0631 23.6137 20.9025 23.6212 20.7419 23.6212C20.555 23.6206 20.3688 23.6125 20.1825 23.5969C19.9925 23.5806 19.8025 23.5587 19.6138 23.5312C19.2419 23.4762 18.8725 23.405 18.5069 23.3175C18.1844 23.2412 17.865 23.1544 17.5481 23.0581C17.3181 22.9894 17.09 22.9137 16.8644 22.8312C16.8044 22.8106 16.7419 22.7969 16.6788 22.7912C16.5819 22.7806 16.485 22.7756 16.3875 22.7762C16.2463 22.7769 16.105 22.7825 15.9638 22.7931C15.7956 22.8056 15.6275 22.8212 15.46 22.84C15.0656 22.885 14.6719 22.9344 14.2788 22.9887C14.0131 23.0244 13.7469 23.0594 13.4806 23.0931C13.2081 23.1275 12.935 23.1594 12.6619 23.1875C12.3913 23.2162 12.1206 23.2387 11.8488 23.2562C11.5888 23.2737 11.3281 23.2825 11.0669 23.2831C11.0013 23.2831 10.9356 23.2825 10.87 23.2812C10.4763 23.2725 10.0831 23.2369 9.69376 23.1737C9.37438 23.1225 9.06001 23.0437 8.75438 22.9381C8.49063 22.8475 8.23563 22.7344 7.99126 22.5994C7.76751 22.4762 7.55626 22.3319 7.36001 22.1681L7.19188 22.0281L7.47188 21.6919L7.64001 21.8319C7.81501 21.9775 8.00313 22.1062 8.20313 22.2162C8.42501 22.3387 8.65688 22.4419 8.89688 22.5244C9.17876 22.6219 9.46876 22.6944 9.76376 22.7419C10.1325 22.8019 10.5056 22.8356 10.88 22.8437C10.9419 22.845 11.0044 22.8456 11.0663 22.8456C11.3181 22.845 11.5694 22.8362 11.8206 22.82C12.0863 22.8025 12.3519 22.78 12.6163 22.7525C12.8863 22.7244 13.1563 22.6931 13.4256 22.6587C13.6906 22.625 13.955 22.5906 14.22 22.555C14.6163 22.5006 15.0131 22.4506 15.4106 22.405C15.5838 22.3856 15.7575 22.37 15.9313 22.3569C16.0819 22.3456 16.2331 22.3394 16.385 22.3387C16.4981 22.3375 16.6113 22.3437 16.7238 22.3556C16.8219 22.3656 16.9181 22.3869 17.0106 22.4187C17.23 22.4987 17.4513 22.5725 17.6744 22.6394C17.9831 22.7331 18.2944 22.8175 18.6081 22.8919C18.9613 22.9762 19.3181 23.0456 19.6775 23.0987C19.8575 23.125 20.0381 23.1456 20.2194 23.1606C20.3938 23.1756 20.5681 23.1831 20.7431 23.1837C20.8894 23.1837 21.0356 23.1769 21.1813 23.1631C21.3138 23.1506 21.4456 23.1294 21.5756 23.0994C22.0475 22.9881 22.5106 22.8394 22.9594 22.655C23.5575 22.4081 24.1406 22.1262 24.7056 21.8094Z" fill="#E12525"/>
</g>
<defs>
<clipPath id="clip0_2213_53">
<rect width="32" height="32" fill="white"/>
</clipPath>
</defs>
</svg>
