<svg width="24" height="24" viewBox="0 0 24 24" fill="none" xmlns="http://www.w3.org/2000/svg">
<g clip-path="url(#clip0_2212_55)">
<path d="M19.8264 10.795C21.3211 9.2976 21.8988 7.97688 21.45 7.07088C21.0091 6.18096 19.5439 5.86248 17.3232 6.17208C16.5449 5.4744 15.6266 4.9344 14.6064 4.59C12.63 3.9228 10.5125 4.0656 8.64359 4.99152C5.7036 6.44808 4.08648 9.52032 4.32792 12.6074C2.73264 14.1878 2.09688 15.5484 2.53848 16.4395C2.89128 17.1518 3.8388 17.4946 5.17632 17.4946C5.57928 17.4946 6.01823 17.4629 6.48623 17.4012C7.96751 18.9382 10.0154 19.7962 12.1224 19.7962C13.2852 19.7962 14.4658 19.5355 15.5762 18.9854C18.6989 17.4389 20.3309 14.0693 19.8264 10.795ZM21.0199 7.28424C21.3446 7.93968 20.8692 8.99952 19.7143 10.2223C19.5804 9.64584 19.3807 9.07536 19.1066 8.52264C18.7526 7.80792 18.2995 7.16328 17.7655 6.6012C19.5053 6.40992 20.7098 6.65808 21.0199 7.28424ZM5.16623 9.6456C5.79215 7.79064 7.1028 6.29064 8.85672 5.42184C9.88344 4.91304 10.9901 4.65648 12.1032 4.65648C12.8918 4.65648 13.6836 4.78536 14.4528 5.0448C16.3078 5.67048 17.8078 6.98136 18.6766 8.73552C18.9809 9.34968 19.1885 9.98664 19.3097 10.6291C17.8711 12.0166 15.7829 13.4225 13.4042 14.6009C10.8233 15.8796 8.48232 16.62 6.66552 16.8958C6.22368 16.404 5.84448 15.8503 5.54304 15.2417C4.67424 13.4878 4.54031 11.5006 5.16623 9.6456ZM2.9688 16.2264C2.65848 15.6 3.19152 14.4907 4.39896 13.2214C4.51968 13.9793 4.75512 14.7319 5.11344 15.455C5.38776 16.0087 5.7216 16.513 6.09984 16.9694C4.42464 17.1437 3.2892 16.8737 2.9688 16.2264ZM15.3634 18.5554C13.6092 19.4244 11.6215 19.5581 9.76703 18.9324C8.74367 18.587 7.82928 18.0324 7.06824 17.3107C8.95272 16.9807 11.2404 16.2086 13.6174 15.0312C15.907 13.897 17.9364 12.5513 19.3966 11.207C19.7114 14.1713 18.1862 17.1571 15.3634 18.5554Z" fill="white"/>
<path d="M6.55727 12.2287C6.57215 12.2287 6.58703 12.2273 6.60215 12.2244C6.73223 12.1997 6.81791 12.0742 6.79319 11.9438C6.45815 10.175 7.28303 8.38776 8.84567 7.49616C8.96063 7.43064 9.00071 7.284 8.93519 7.16904C8.86943 7.0536 8.72279 7.01328 8.60783 7.07952C6.86735 8.0724 5.94863 10.0634 6.32183 12.0336C6.34367 12.1486 6.44423 12.2287 6.55727 12.2287Z" fill="white"/>
<path d="M21.4752 3.77112L21.1318 3.5832C20.8294 3.41784 20.5822 3.17064 20.4168 2.86824L20.2291 2.5248C20.1871 2.44776 20.1062 2.4 20.0186 2.4C19.931 2.4 19.8502 2.44776 19.8082 2.52504L19.6202 2.86848C19.4549 3.17088 19.2077 3.41784 18.9053 3.58344L18.5618 3.77136C18.4848 3.8136 18.437 3.89424 18.437 3.98184C18.437 4.06968 18.485 4.15032 18.5621 4.19232L18.9053 4.38C19.2077 4.54536 19.4549 4.79256 19.6202 5.09496L19.8082 5.4384C19.8504 5.51544 19.931 5.56344 20.0186 5.56344C20.1065 5.56344 20.1871 5.51568 20.2291 5.4384L20.4168 5.09496C20.5822 4.79256 20.8294 4.5456 21.1318 4.38L21.4752 4.19232C21.552 4.15008 21.6 4.06944 21.6 3.9816C21.6 3.894 21.5522 3.81336 21.4752 3.77112ZM20.0186 4.82376C19.8173 4.47264 19.5274 4.18296 19.1762 3.9816C19.5274 3.78 19.8173 3.49032 20.0186 3.1392C20.22 3.49032 20.5099 3.78024 20.861 3.9816C20.5099 4.18296 20.22 4.47264 20.0186 4.82376Z" fill="white"/>
<path d="M11.995 9.06024L12.4471 9.30744C12.858 9.53232 13.194 9.86832 13.4189 10.2794L13.6663 10.7316C13.7086 10.8084 13.7892 10.8564 13.8768 10.8564C13.9646 10.8564 14.0453 10.8086 14.0873 10.7314L14.3345 10.2792C14.5591 9.86832 14.8951 9.53232 15.306 9.30744L15.7582 9.06024C15.835 9.01824 15.883 8.93736 15.883 8.84976C15.883 8.76216 15.8352 8.68128 15.7582 8.63928L15.306 8.39184C14.8951 8.16696 14.5591 7.83096 14.3345 7.42032L14.0873 6.96792C14.0453 6.89088 13.9644 6.84288 13.8768 6.84288C13.7892 6.84288 13.7083 6.89064 13.6663 6.96792L13.4189 7.42032C13.194 7.8312 12.8582 8.16696 12.4471 8.39184L11.995 8.63928C11.9179 8.68128 11.8702 8.76216 11.8702 8.84976C11.8702 8.93736 11.9179 9.01824 11.995 9.06024ZM12.6773 8.8128C13.1688 8.544 13.5708 8.14224 13.8398 7.65048L13.8766 7.58352L13.9133 7.65048C14.1823 8.14224 14.5841 8.544 15.0756 8.8128L15.143 8.84976L15.0756 8.88648C14.5841 9.15528 14.1821 9.55728 13.9133 10.049L13.8766 10.116L13.8398 10.049C13.571 9.55728 13.169 9.15528 12.6773 8.88648L12.6101 8.84976L12.6773 8.8128Z" fill="white"/>
<path d="M7.11505 19.6608L6.73417 19.4525C6.39409 19.2665 6.11617 18.9883 5.93041 18.6485L5.72185 18.2674C5.63737 18.113 5.38513 18.113 5.30065 18.2674L5.09209 18.6485C4.90633 18.9883 4.62817 19.2662 4.28833 19.4525L3.90721 19.6608C3.83017 19.7028 3.78217 19.7837 3.78217 19.8713C3.78217 19.9589 3.83017 20.0398 3.90721 20.0818L4.28809 20.2901C4.62817 20.4761 4.90609 20.7542 5.09185 21.0941L5.30041 21.4752C5.34289 21.5522 5.42353 21.6 5.51113 21.6C5.59873 21.6 5.67961 21.5522 5.72161 21.475L5.93017 21.0938C6.11593 20.754 6.39385 20.4761 6.73393 20.2898L7.11505 20.0815C7.19209 20.0395 7.24009 19.9586 7.24009 19.871C7.24009 19.7834 7.19209 19.7028 7.11505 19.6608ZM5.51113 20.8598C5.28193 20.4425 4.94041 20.1007 4.52257 19.8713C4.94017 19.6418 5.28169 19.3001 5.51113 18.8827C5.74057 19.3001 6.08209 19.6418 6.49969 19.8713C6.08209 20.1007 5.74033 20.4425 5.51113 20.8598Z" fill="white"/>
<path d="M21.36 16.53H20.9028V16.0738C20.9028 15.941 20.7953 15.8338 20.6628 15.8338C20.5303 15.8338 20.4228 15.941 20.4228 16.0738V16.53H19.9656C19.8331 16.53 19.7256 16.6373 19.7256 16.77C19.7256 16.9027 19.8331 17.01 19.9656 17.01H20.4228V17.4662C20.4228 17.599 20.5303 17.7062 20.6628 17.7062C20.7953 17.7062 20.9028 17.599 20.9028 17.4662V17.01H21.36C21.4925 17.01 21.6 16.9027 21.6 16.77C21.6 16.6373 21.4925 16.53 21.36 16.53Z" fill="white"/>
<path d="M18.8971 20.3275H18.4399V19.8713C18.4399 19.7386 18.3324 19.6313 18.1999 19.6313C18.0674 19.6313 17.9599 19.7386 17.9599 19.8713V20.3275H17.5027C17.3702 20.3275 17.2627 20.4348 17.2627 20.5675C17.2627 20.7002 17.3702 20.8075 17.5027 20.8075H17.9599V21.264C17.9599 21.3967 18.0674 21.504 18.1999 21.504C18.3324 21.504 18.4399 21.3967 18.4399 21.264V20.8078H18.8971C19.0296 20.8078 19.1371 20.7005 19.1371 20.5678C19.1371 20.435 19.0298 20.3275 18.8971 20.3275Z" fill="white"/>
<path d="M5.23704 4.27272C5.36952 4.27272 5.47704 4.16544 5.47704 4.03272V3.57648H5.93424C6.06672 3.57648 6.17424 3.4692 6.17424 3.33648C6.17424 3.20376 6.06672 3.09648 5.93424 3.09648H5.47704V2.64C5.47704 2.50728 5.36952 2.4 5.23704 2.4C5.10455 2.4 4.99703 2.50728 4.99703 2.64V3.09624H4.53984C4.40736 3.09624 4.29984 3.20352 4.29984 3.33624C4.29984 3.46896 4.40736 3.57624 4.53984 3.57624H4.99703V4.03248C4.99703 4.1652 5.10455 4.27272 5.23704 4.27272Z" fill="white"/>
<path d="M2.63999 6.2592H3.09719V6.71544C3.09719 6.84816 3.20471 6.95544 3.33719 6.95544C3.46967 6.95544 3.57719 6.84816 3.57719 6.71544V6.2592H4.03439C4.16687 6.2592 4.27439 6.15192 4.27439 6.0192C4.27439 5.88648 4.16687 5.7792 4.03439 5.7792H3.57719V5.32296C3.57719 5.19024 3.46967 5.08296 3.33719 5.08296C3.20471 5.08296 3.09719 5.19024 3.09719 5.32296V5.7792H2.63999C2.50751 5.7792 2.39999 5.88648 2.39999 6.0192C2.39999 6.15192 2.50751 6.2592 2.63999 6.2592Z" fill="white"/>
<path d="M11.4799 12.0194H11.9371V12.4757C11.9371 12.6084 12.0446 12.7157 12.1771 12.7157C12.3096 12.7157 12.4171 12.6084 12.4171 12.4757V12.0194H12.8743C13.0068 12.0194 13.1143 11.9122 13.1143 11.7794C13.1143 11.6467 13.0068 11.5394 12.8743 11.5394H12.4171V11.0832C12.4171 10.9505 12.3096 10.8432 12.1771 10.8432C12.0446 10.8432 11.9371 10.9505 11.9371 11.0832V11.5394H11.4799C11.3474 11.5394 11.2399 11.6467 11.2399 11.7794C11.2399 11.9122 11.3474 12.0194 11.4799 12.0194Z" fill="white"/>
</g>
<defs>
<clipPath id="clip0_2212_55">
<rect width="24" height="24" fill="white"/>
</clipPath>
</defs>
</svg>
