<svg width="32" height="32" viewBox="0 0 32 32" fill="none" xmlns="http://www.w3.org/2000/svg">
<g clip-path="url(#clip0_2213_42)">
<path fill-rule="evenodd" clip-rule="evenodd" d="M4.96875 16C4.9675 14.5256 5.2625 13.0663 5.83625 11.7081C6.39188 10.3975 7.19438 9.20688 8.20125 8.20125C9.20688 7.19438 10.3975 6.39188 11.7075 5.83625C13.0656 5.2625 14.5256 4.9675 16 4.96875C17.4744 4.9675 18.9344 5.2625 20.2925 5.83625C21.6025 6.39188 22.7931 7.19438 23.7988 8.20125C24.8056 9.20688 25.6081 10.3975 26.1638 11.7075C26.7375 13.0656 27.0325 14.5256 27.0313 16C27.0325 17.4744 26.7375 18.9344 26.1638 20.2925C25.6081 21.6025 24.8056 22.7931 23.7988 23.7988C22.7931 24.8056 21.6025 25.6081 20.2925 26.1638C18.9344 26.7375 17.4744 27.0325 16 27.0313C14.5256 27.0325 13.0656 26.7375 11.7075 26.1638C10.3975 25.6081 9.20688 24.8056 8.20125 23.7988C7.19438 22.7931 6.39188 21.6025 5.83625 20.2925C5.2625 18.9344 4.9675 17.4744 4.96875 16ZM5.90625 16C5.905 14.6513 6.175 13.3156 6.7 12.0725C7.20813 10.8738 7.94313 9.78438 8.86438 8.86438C9.78438 7.94313 10.8738 7.20813 12.0731 6.7C13.3156 6.175 14.6513 5.905 16 5.90625C17.3488 5.905 18.6844 6.175 19.9269 6.7C21.1263 7.20813 22.2156 7.94313 23.1356 8.86438C24.0569 9.78438 24.7919 10.8738 25.3 12.0731C25.825 13.3156 26.095 14.6513 26.0938 16C26.095 17.3488 25.825 18.6844 25.3 19.9269C24.7919 21.1263 24.0569 22.2156 23.1356 23.1356C22.2156 24.0569 21.1263 24.7919 19.9269 25.3C18.6844 25.825 17.3488 26.095 16 26.0938C14.6513 26.095 13.3156 25.825 12.0731 25.3C10.8738 24.7919 9.78438 24.0569 8.86438 23.1356C7.94313 22.2156 7.20813 21.1263 6.7 19.9269C6.175 18.6844 5.905 17.3488 5.90625 16Z" fill="#E57653"/>
<path d="M5.42525 15.9599C6.44409 14.66 9.43035 12.3342 13.2247 13.4304C17.9676 14.8005 20.0756 14.1682 20.708 13.6412C21.3403 13.1142 23.7645 13.2196 26.294 15.3275" stroke="#E57653" stroke-width="0.5"/>
<path d="M6.05763 19.6489C7.03151 18.3489 9.88598 16.0232 13.5129 17.1193C18.0465 18.4895 20.0614 17.8571 20.6659 17.3301C21.2703 16.8031 23.5875 16.9085 26.0054 19.0165" stroke="#E57653" stroke-width="0.5"/>
<path d="M8.16559 23.3377C8.93744 22.0378 11.1998 19.712 14.0743 20.8081C17.6674 22.1783 19.2643 21.5459 19.7434 21.0189C20.2225 20.4919 22.059 20.5973 23.9753 22.7053" stroke="#E57653" stroke-width="0.5"/>
<path d="M19.6119 9.08932C19.6119 9.37095 19.454 9.64405 19.1624 9.85437C18.8711 10.0645 18.4586 10.2007 17.9939 10.2007C17.5291 10.2007 17.1166 10.0645 16.8253 9.85437C16.5337 9.64405 16.3758 9.37095 16.3758 9.08932C16.3758 8.80768 16.5337 8.53459 16.8253 8.32426C17.1166 8.11413 17.5291 7.97797 17.9939 7.97797C18.4586 7.97797 18.8711 8.11413 19.1624 8.32426C19.454 8.53459 19.6119 8.80768 19.6119 9.08932Z" stroke="#E57653" stroke-width="0.4"/>
</g>
<defs>
<clipPath id="clip0_2213_42">
<rect width="32" height="32" fill="white"/>
</clipPath>
</defs>
</svg>
