<svg width="32" height="32" viewBox="0 0 32 32" fill="none" xmlns="http://www.w3.org/2000/svg">
<g clip-path="url(#clip0_2213_32)">
<path fill-rule="evenodd" clip-rule="evenodd" d="M4.96875 16C4.9675 14.5256 5.2625 13.0663 5.83625 11.7081C6.39188 10.3975 7.19438 9.20688 8.20125 8.20125C9.20688 7.19438 10.3975 6.39188 11.7075 5.83625C13.0656 5.2625 14.5256 4.9675 16 4.96875C17.4744 4.9675 18.9344 5.2625 20.2925 5.83625C21.6025 6.39188 22.7931 7.19438 23.7988 8.20125C24.8056 9.20688 25.6081 10.3975 26.1638 11.7075C26.7375 13.0656 27.0325 14.5256 27.0313 16C27.0325 17.4744 26.7375 18.9344 26.1638 20.2925C25.6081 21.6025 24.8056 22.7931 23.7988 23.7988C22.7931 24.8056 21.6025 25.6081 20.2925 26.1638C18.9344 26.7375 17.4744 27.0325 16 27.0313C14.5256 27.0325 13.0656 26.7375 11.7075 26.1638C10.3975 25.6081 9.20688 24.8056 8.20125 23.7988C7.19438 22.7931 6.39188 21.6025 5.83625 20.2925C5.2625 18.9344 4.9675 17.4744 4.96875 16ZM5.90625 16C5.905 14.6513 6.175 13.3156 6.7 12.0725C7.20813 10.8738 7.94313 9.78438 8.86438 8.86438C9.78438 7.94313 10.8738 7.20813 12.0731 6.7C13.3156 6.175 14.6513 5.905 16 5.90625C17.3488 5.905 18.6844 6.175 19.9269 6.7C21.1263 7.20813 22.2156 7.94313 23.1356 8.86438C24.0569 9.78438 24.7919 10.8738 25.3 12.0731C25.825 13.3156 26.095 14.6513 26.0938 16C26.095 17.3488 25.825 18.6844 25.3 19.9269C24.7919 21.1263 24.0569 22.2156 23.1356 23.1356C22.2156 24.0569 21.1263 24.7919 19.9269 25.3C18.6844 25.825 17.3488 26.095 16 26.0938C14.6513 26.095 13.3156 25.825 12.0731 25.3C10.8738 24.7919 9.78438 24.0569 8.86438 23.1356C7.94313 22.2156 7.20813 21.1263 6.7 19.9269C6.175 18.6844 5.905 17.3488 5.90625 16Z" fill="#70544B"/>
<path d="M22.1531 7.20749L22.3594 7.13437L22.5056 7.54687L22.2994 7.61999C21.8256 7.78812 21.3444 7.93499 20.8575 8.05999C20.3488 8.19062 19.835 8.29874 19.3169 8.38562C18.2206 8.56687 17.1113 8.65749 16 8.65624C14.9181 8.65749 13.8375 8.57187 12.7694 8.39937C12.2638 8.31749 11.7613 8.21437 11.2644 8.09062C10.7875 7.97249 10.3163 7.83312 9.85189 7.67312L9.64501 7.60187L9.78689 7.18812L9.99376 7.25937C10.4463 7.41499 10.9056 7.55062 11.37 7.66624C11.855 7.78687 12.3456 7.88749 12.8388 7.96749C13.8844 8.13624 14.9413 8.21999 16 8.21874C17.0869 8.21999 18.1725 8.13187 19.245 7.95374C19.7506 7.86937 20.2525 7.76374 20.7488 7.63624C21.2231 7.51499 21.6919 7.37187 22.1531 7.20749ZM25.6175 11.8962L25.8106 11.7925L26.0169 12.1787L25.8238 12.2819C25.5 12.455 25.1688 12.6162 24.8325 12.765C24.48 12.9206 24.1225 13.0644 23.76 13.1956C22.9875 13.4737 22.1988 13.7031 21.3981 13.8837C20.5388 14.0775 19.6694 14.2225 18.7931 14.3175C17.8656 14.4187 16.9331 14.4694 16 14.4687C15.04 14.4694 14.0806 14.4156 13.1269 14.3087C12.2281 14.2081 11.3363 14.055 10.4556 13.8494C9.63751 13.66 8.83189 13.4175 8.04501 13.1237C7.67689 12.9856 7.31376 12.8337 6.95626 12.6694C6.61564 12.5131 6.28189 12.3431 5.95501 12.1606L5.76376 12.0537L5.97751 11.6719L6.16876 11.7787C6.48501 11.9562 6.80876 12.1206 7.13876 12.2719C7.48626 12.4319 7.84001 12.5794 8.19814 12.7137C8.96751 13.0006 9.75439 13.2381 10.5544 13.4237C11.4188 13.625 12.2938 13.775 13.1756 13.8737C14.1138 13.9794 15.0563 14.0319 16 14.0312C16.9175 14.0319 17.8338 13.9825 18.7463 13.8825C19.6056 13.7894 20.4588 13.6469 21.3019 13.4569C22.085 13.2806 22.8563 13.0556 23.6113 12.7837C23.9644 12.6562 24.3125 12.5169 24.6556 12.365C24.9819 12.2206 25.3031 12.0644 25.6175 11.8962Z" fill="#70544B"/>
<path d="M26.1969 13.1437L26.3919 13.045L26.5894 13.4356L26.3938 13.5344C26.05 13.7075 25.7006 13.8687 25.345 14.0169C24.9719 14.1725 24.5931 14.3162 24.21 14.4469C23.3919 14.725 22.5575 14.9544 21.7119 15.1337C20.8013 15.3281 19.8813 15.4725 18.9556 15.5675C17.9738 15.6687 16.9869 15.7194 16 15.7187C15.0556 15.7194 14.1119 15.6731 13.1719 15.5806C12.2825 15.4937 11.3988 15.3606 10.5231 15.1831C9.70626 15.0181 8.89876 14.8075 8.10564 14.5519C7.73251 14.4312 7.36314 14.2994 6.99876 14.1562C6.65001 14.0194 6.30626 13.8712 5.96814 13.7112L5.77001 13.6181L5.95689 13.2225L6.15501 13.3156C6.48439 13.4712 6.81939 13.6156 7.15814 13.7487C7.51501 13.8887 7.87501 14.0175 8.23939 14.1356C9.01751 14.3856 9.80939 14.5925 10.61 14.7544C11.4713 14.9294 12.34 15.0594 13.2144 15.145C14.14 15.2362 15.07 15.2819 16 15.2812C16.9725 15.2819 17.9438 15.2319 18.9106 15.1325C19.8213 15.0394 20.7256 14.8969 21.6206 14.7062C22.4494 14.53 23.2669 14.3056 24.0694 14.0325C24.4431 13.905 24.8125 13.765 25.1769 13.6131C25.5225 13.4694 25.8625 13.3125 26.1969 13.1437ZM25.9556 18.29L26.1525 18.195L26.3425 18.5894L26.145 18.6844C25.805 18.8481 25.4594 19 25.1094 19.14C24.7419 19.2862 24.37 19.4219 23.9944 19.545C23.1931 19.8069 22.3781 20.0225 21.5531 20.1919C20.6675 20.3744 19.7731 20.51 18.8738 20.5994C17.9219 20.6944 16.9663 20.7419 16.0094 20.7412C15.0481 20.7419 14.0875 20.6937 13.1313 20.5981C12.2275 20.5081 11.3294 20.3706 10.4406 20.1869C9.61189 20.0156 8.79376 19.7981 7.99064 19.5337C7.61314 19.4094 7.24064 19.2731 6.87189 19.125C6.52126 18.9837 6.17501 18.83 5.83439 18.665L5.63751 18.5694L5.82814 18.1762L6.02501 18.2712C6.35626 18.4325 6.69376 18.5812 7.03564 18.7187C7.39501 18.8631 7.75939 18.9969 8.12751 19.1181C8.91501 19.3769 9.71689 19.5906 10.5288 19.7581C11.4031 19.9394 12.2863 20.0744 13.1744 20.1625C14.1169 20.2575 15.0625 20.3044 16.0094 20.3037C16.9513 20.3044 17.8931 20.2575 18.8306 20.1644C19.715 20.0762 20.5944 19.9425 21.465 19.7631C22.2738 19.5975 23.0731 19.3856 23.8581 19.1294C24.225 19.0087 24.5881 18.8769 24.9469 18.7337C25.2881 18.5975 25.6244 18.4494 25.9556 18.29ZM24.4094 22.225L24.615 22.1506L24.7638 22.5619L24.5581 22.6362C23.9319 22.8631 23.295 23.06 22.6494 23.2256C21.9625 23.4019 21.2681 23.5481 20.5681 23.6637C19.83 23.7856 19.0875 23.8769 18.3419 23.9369C17.5631 24 16.7819 24.0312 16 24.0312C15.2519 24.0312 14.5044 24.0025 13.7581 23.945C13.0431 23.8894 12.33 23.8062 11.6219 23.6944C10.9475 23.5881 10.2781 23.4537 9.61501 23.2919C8.98939 23.1394 8.37126 22.9587 7.76251 22.75L7.55564 22.6787L7.69751 22.265L7.90439 22.3362C8.50064 22.5406 9.10626 22.7175 9.71876 22.8669C10.37 23.0262 11.0275 23.1581 11.69 23.2619C12.3869 23.3719 13.0881 23.4544 13.7919 23.5087C14.5269 23.5656 15.2631 23.5937 16 23.5937C16.77 23.5937 17.5394 23.5631 18.3069 23.5006C19.04 23.4419 19.7706 23.3519 20.4969 23.2319C21.1844 23.1187 21.8663 22.975 22.5406 22.8019C23.1725 22.6394 23.7963 22.4475 24.4094 22.225Z" fill="#70544B"/>
<path d="M23.0269 23.67L23.2375 23.6106L23.3563 24.0319L23.1456 24.0913C22.6019 24.2444 22.0525 24.3781 21.4994 24.4913C20.9194 24.6094 20.3363 24.7081 19.7494 24.7863C18.5063 24.9506 17.2538 25.0325 16 25.0313C14.8056 25.0325 13.6119 24.9581 12.4269 24.8088C11.8656 24.7381 11.3069 24.6488 10.7519 24.5413C10.22 24.4381 9.69188 24.3169 9.16813 24.1775L8.95688 24.1213L9.06938 23.6988L9.28063 23.755C9.79438 23.8919 10.3131 24.0106 10.835 24.1119C11.3806 24.2175 11.93 24.305 12.4819 24.375C13.6488 24.5219 14.8238 24.595 16 24.5938C17.2344 24.595 18.4681 24.5144 19.6919 24.3525C20.2681 24.2756 20.8419 24.1788 21.4119 24.0625C21.9544 23.9513 22.4931 23.8206 23.0269 23.67Z" fill="#70544B"/>
</g>
<defs>
<clipPath id="clip0_2213_32">
<rect width="32" height="32" fill="white"/>
</clipPath>
</defs>
</svg>
