<svg width="32" height="32" viewBox="0 0 32 32" fill="none" xmlns="http://www.w3.org/2000/svg">
<g clip-path="url(#clip0_2213_68)">
<path fill-rule="evenodd" clip-rule="evenodd" d="M4.96875 16C4.9675 14.5256 5.2625 13.0663 5.83625 11.7081C6.39187 10.3975 7.19438 9.20688 8.20125 8.20125C9.20688 7.19438 10.3975 6.39188 11.7075 5.83625C13.0656 5.2625 14.5256 4.9675 16 4.96875C17.4744 4.9675 18.9344 5.2625 20.2925 5.83625C21.6025 6.39188 22.7931 7.19438 23.7987 8.20125C24.8056 9.20688 25.6081 10.3975 26.1637 11.7075C26.7375 13.0656 27.0325 14.5256 27.0312 16C27.0325 17.4744 26.7375 18.9344 26.1637 20.2925C25.6081 21.6025 24.8056 22.7931 23.7987 23.7988C22.7931 24.8056 21.6025 25.6081 20.2925 26.1638C18.9344 26.7375 17.4744 27.0325 16 27.0313C14.5256 27.0325 13.0656 26.7375 11.7075 26.1638C10.3975 25.6081 9.20688 24.8056 8.20125 23.7988C7.19438 22.7931 6.39187 21.6025 5.83625 20.2925C5.2625 18.9344 4.9675 17.4744 4.96875 16ZM5.90625 16C5.905 14.6513 6.175 13.3156 6.7 12.0725C7.20812 10.8738 7.94313 9.78438 8.86438 8.86438C9.78438 7.94313 10.8737 7.20813 12.0731 6.7C13.3156 6.175 14.6513 5.905 16 5.90625C17.3487 5.905 18.6844 6.175 19.9269 6.7C21.1262 7.20813 22.2156 7.94313 23.1356 8.86438C24.0569 9.78438 24.7919 10.8738 25.3 12.0731C25.825 13.3156 26.095 14.6513 26.0938 16C26.095 17.3488 25.825 18.6844 25.3 19.9269C24.7919 21.1263 24.0569 22.2156 23.1356 23.1356C22.2156 24.0569 21.1262 24.7919 19.9269 25.3C18.6844 25.825 17.3487 26.095 16 26.0938C14.6513 26.095 13.3156 25.825 12.0731 25.3C10.8737 24.7919 9.78438 24.0569 8.86438 23.1356C7.94313 22.2156 7.20812 21.1263 6.7 19.9269C6.175 18.6844 5.905 17.3488 5.90625 16Z" fill="#1D46D5"/>
<path fill-rule="evenodd" clip-rule="evenodd" d="M10.2188 16C10.2188 15.395 10.4594 14.8144 10.8869 14.3869C11.3144 13.9594 11.895 13.7188 12.5 13.7188C13.105 13.7188 13.6856 13.9594 14.1131 14.3869C14.5406 14.8144 14.7812 15.395 14.7812 16C14.7812 16.605 14.5406 17.1856 14.1131 17.6131C13.6856 18.0406 13.105 18.2812 12.5 18.2812C11.895 18.2812 11.3144 18.0406 10.8869 17.6131C10.4594 17.1856 10.2188 16.605 10.2188 16ZM10.6562 16C10.6562 15.5112 10.8506 15.0419 11.1962 14.6962C11.5419 14.3506 12.0112 14.1562 12.5 14.1562C12.9888 14.1562 13.4581 14.3506 13.8038 14.6962C14.1494 15.0419 14.3438 15.5112 14.3438 16C14.3438 16.4888 14.1494 16.9581 13.8038 17.3037C13.4581 17.6494 12.9888 17.8438 12.5 17.8438C12.0112 17.8438 11.5419 17.6494 11.1962 17.3037C10.8506 16.9581 10.6562 16.4888 10.6562 16Z" fill="#1D46D5"/>
<path d="M8.81063 8.41188L8.6225 8.30063L8.845 7.92375L9.03312 8.035C9.34187 8.2175 9.60375 8.46938 9.7975 8.77188C9.9975 9.08438 10.1181 9.44063 10.1481 9.81063C10.1537 9.87438 10.1562 9.93813 10.1562 10.0019C10.1556 10.5719 9.94188 11.1206 9.55688 11.5406C9.16938 11.9638 8.63625 12.2256 8.06437 12.2731C8.00062 12.2788 7.93688 12.2813 7.87313 12.2813C7.43438 12.2813 7.00438 12.1544 6.63625 11.9156L6.45312 11.7963L6.69063 11.4294L6.87437 11.5481C7.17187 11.7413 7.51875 11.8438 7.87313 11.8438C7.925 11.8438 7.97625 11.8419 8.02812 11.8375C8.49 11.7988 8.92125 11.5875 9.23438 11.245C9.54563 10.9063 9.71813 10.4619 9.71875 10.0019C9.71875 9.95 9.71687 9.89813 9.7125 9.84688C9.6875 9.54813 9.59063 9.26 9.42875 9.0075C9.2725 8.76313 9.06063 8.55938 8.81063 8.41188ZM26.1569 19.125L26.3738 19.1538L26.3162 19.5875L26.0994 19.5588C25.6887 19.5038 25.29 19.3819 24.9188 19.1975C24.5644 19.0219 24.2425 18.7869 23.9662 18.5038C23.6962 18.2269 23.48 17.9031 23.3275 17.5481C23.1737 17.1869 23.0938 16.7988 23.0938 16.4063C23.0938 16.0056 23.1769 15.6094 23.3369 15.2425C23.4956 14.8813 23.7206 14.5531 24 14.2744C24.2862 13.9888 24.62 13.755 24.9862 13.5825C25.37 13.4013 25.7813 13.2856 26.2038 13.2413L26.4212 13.2181L26.4675 13.6531L26.25 13.6763C25.8762 13.7156 25.5119 13.8181 25.1725 13.9781C24.8519 14.1294 24.5594 14.3344 24.3088 14.5844C24.0681 14.8244 23.8744 15.1069 23.7375 15.4181C23.6019 15.73 23.5312 16.0663 23.5312 16.4063C23.5312 16.7394 23.5988 17.0694 23.7294 17.3763C23.8606 17.6813 24.0475 17.96 24.2794 18.1981C24.5213 18.4463 24.8031 18.6519 25.1138 18.8056C25.4413 18.9688 25.7938 19.0763 26.1569 19.125Z" fill="#1D46D5"/>
<path fill-rule="evenodd" clip-rule="evenodd" d="M18.5938 13.1875C18.5938 12.8313 18.7356 12.4894 18.9875 12.2375C19.2394 11.9856 19.5813 11.8438 19.9375 11.8438C20.2937 11.8438 20.6356 11.9856 20.8875 12.2375C21.1394 12.4894 21.2812 12.8313 21.2812 13.1875C21.2812 13.5437 21.1394 13.8856 20.8875 14.1375C20.6356 14.3894 20.2937 14.5312 19.9375 14.5312C19.5813 14.5312 19.2394 14.3894 18.9875 14.1375C18.7356 13.8856 18.5938 13.5437 18.5938 13.1875ZM19.0312 13.1875C19.0312 12.9475 19.1269 12.7169 19.2969 12.5469C19.4669 12.3769 19.6975 12.2812 19.9375 12.2812C20.1775 12.2812 20.4081 12.3769 20.5781 12.5469C20.7481 12.7169 20.8438 12.9475 20.8438 13.1875C20.8438 13.4275 20.7481 13.6581 20.5781 13.8281C20.4081 13.9981 20.1775 14.0938 19.9375 14.0938C19.6975 14.0938 19.4669 13.9981 19.2969 13.8281C19.1269 13.6581 19.0312 13.4275 19.0312 13.1875Z" fill="#1D46D5"/>
<path d="M7.4825 22.2763L7.34312 22.445L7.00562 22.1669L7.145 21.9981C7.33375 21.7694 7.54937 21.5644 7.78812 21.3881C8.0425 21.1988 8.31875 21.04 8.61 20.915C8.86187 20.8063 9.12312 20.7231 9.39125 20.6669C9.64437 20.6131 9.90187 20.5856 10.1606 20.585C10.4081 20.5844 10.655 20.6119 10.8962 20.6675C11.1244 20.7194 11.345 20.8013 11.5519 20.9113C11.7512 21.0175 11.9325 21.1538 12.0894 21.3163C12.2456 21.4794 12.3712 21.6688 12.4612 21.8763C12.5631 22.115 12.6156 22.3725 12.615 22.6325C12.6125 22.9069 12.5606 23.1781 12.4619 23.4331C12.3575 23.7031 12.2137 23.9556 12.035 24.1831C11.8437 24.4275 11.6219 24.6463 11.375 24.8338C11.1094 25.035 10.8206 25.2038 10.5144 25.335L10.3131 25.4213L10.1412 25.0188L10.3419 24.9331C10.6156 24.8156 10.8737 24.665 11.1106 24.485C11.3275 24.3206 11.5225 24.1281 11.6906 23.9131C11.8425 23.72 11.965 23.505 12.0537 23.2756C12.1337 23.0694 12.1756 22.8513 12.1775 22.63C12.1781 22.4306 12.1375 22.2325 12.0594 22.0488C11.9906 21.89 11.8937 21.7444 11.7737 21.6194C11.6494 21.4906 11.505 21.3819 11.3462 21.2975C11.1737 21.2056 10.9894 21.1369 10.7987 21.0938C10.5894 21.0456 10.3756 21.0219 10.1619 21.0225C9.93312 21.0231 9.70562 21.0475 9.48187 21.0944C9.24187 21.145 9.00812 21.22 8.78312 21.3169C8.5225 21.4288 8.27625 21.5706 8.04812 21.7394C7.83875 21.8944 7.64875 22.075 7.4825 22.2763Z" fill="#1D46D5"/>
<path fill-rule="evenodd" clip-rule="evenodd" d="M18.2031 21.4894C18.2544 21.2294 18.3531 20.9813 18.4944 20.7569C18.6319 20.5388 18.8062 20.3463 19.0094 20.1875C19.4256 19.8644 19.9387 19.6894 20.4656 19.6906C20.6256 19.6906 20.7844 19.7069 20.9406 19.7375C21.4756 19.8419 21.9594 20.125 22.3119 20.5406C22.4806 20.7394 22.6131 20.965 22.7056 21.2088C22.7987 21.455 22.8462 21.7156 22.8469 21.9788C22.8469 22.1206 22.8325 22.2613 22.805 22.4006C22.7537 22.6606 22.655 22.9088 22.5144 23.1331C22.3769 23.3513 22.2025 23.5438 21.9994 23.7019C21.5831 24.0256 21.07 24.2006 20.5425 24.1988C20.3831 24.1988 20.2237 24.1831 20.0675 24.1519C19.5325 24.0481 19.0487 23.765 18.6962 23.3494C18.5281 23.1506 18.395 22.9244 18.3031 22.6806C18.21 22.435 18.1619 22.1738 18.1619 21.9106C18.1619 21.7694 18.1756 21.6281 18.2031 21.4894ZM18.6325 21.5744C18.6731 21.3669 18.7519 21.1688 18.865 20.9894C18.975 20.815 19.115 20.66 19.2781 20.5331C19.6175 20.2694 20.0356 20.1269 20.465 20.1281C20.5962 20.1281 20.7275 20.1413 20.8562 20.1669C21.2937 20.2519 21.69 20.4838 21.9781 20.8231C22.1144 20.9838 22.2219 21.1669 22.2962 21.3638C22.3706 21.56 22.4087 21.7688 22.4094 21.9788C22.4094 22.0919 22.3981 22.2044 22.3762 22.3156C22.335 22.5231 22.2562 22.7213 22.1437 22.9C22.0337 23.075 21.8937 23.2294 21.7306 23.3569C21.3912 23.62 20.9731 23.7625 20.5431 23.7613C20.4119 23.7613 20.2806 23.7481 20.1519 23.7225C19.7144 23.6375 19.3187 23.4063 19.03 23.0663C18.8944 22.9056 18.7869 22.7231 18.7119 22.5263C18.6375 22.3294 18.5994 22.1213 18.5994 21.9106C18.5994 21.7975 18.6106 21.685 18.6325 21.5744ZM17.005 6.55125C17.0425 6.38938 17.1131 6.23625 17.2125 6.1025C17.3119 5.97 17.4337 5.85688 17.5725 5.7675C17.715 5.67563 17.8712 5.60563 18.035 5.56063C18.2075 5.51313 18.3856 5.48875 18.5644 5.48938C18.7262 5.48938 18.8875 5.50813 19.045 5.545C19.2425 5.59 19.4331 5.66313 19.61 5.7625C19.7756 5.855 19.9269 5.9725 20.0575 6.11C20.1825 6.24063 20.2844 6.39188 20.3575 6.5575C20.43 6.72 20.4675 6.89563 20.4687 7.07375C20.4687 7.165 20.4587 7.25563 20.4381 7.34438C20.4 7.50688 20.3294 7.65938 20.23 7.79313C20.1306 7.92563 20.0094 8.03875 19.8706 8.12813C19.7275 8.22 19.5712 8.29 19.4075 8.335C19.2356 8.3825 19.0575 8.40688 18.8781 8.40625C18.7162 8.40625 18.5556 8.3875 18.3975 8.35063C18.2 8.30563 18.01 8.2325 17.8331 8.13313C17.6669 8.04063 17.5162 7.92313 17.385 7.78563C17.26 7.655 17.1587 7.50375 17.085 7.33813C17.0131 7.17563 16.975 7 16.9737 6.82188C16.9737 6.73125 16.9844 6.64 17.005 6.55125ZM17.4312 6.65C17.455 6.54688 17.5006 6.44875 17.5637 6.36375C17.6312 6.27375 17.7144 6.19625 17.8094 6.13563C17.915 6.0675 18.0306 6.01563 18.1519 5.9825C18.2856 5.945 18.4244 5.92625 18.5637 5.92688C18.6925 5.92688 18.8212 5.94188 18.9469 5.97125C19.1044 6.00688 19.2556 6.065 19.3962 6.14438C19.5237 6.21563 19.64 6.30563 19.7412 6.41188C19.8312 6.50625 19.905 6.61563 19.9581 6.735C20.0056 6.8425 20.0306 6.95813 20.0312 7.075C20.0312 7.1325 20.0244 7.18938 20.0119 7.24563C19.9875 7.34875 19.9425 7.44625 19.8794 7.53188C19.8112 7.62188 19.7281 7.69938 19.6337 7.76C19.5281 7.82813 19.4125 7.88 19.2912 7.91313C19.1569 7.95063 19.0187 7.96938 18.8794 7.96875C18.75 7.96875 18.6219 7.95375 18.4956 7.92438C18.3387 7.88875 18.1875 7.83063 18.0469 7.75125C17.9187 7.68 17.8025 7.59 17.7019 7.48375C17.6112 7.38938 17.5381 7.28 17.485 7.16063C17.4375 7.05375 17.4125 6.9375 17.4112 6.82063C17.4119 6.76313 17.4181 6.70625 17.4312 6.65Z" fill="#1D46D5"/>
</g>
<defs>
<clipPath id="clip0_2213_68">
<rect width="32" height="32" fill="white"/>
</clipPath>
</defs>
</svg>
