<svg width="32" height="32" viewBox="0 0 32 32" fill="none" xmlns="http://www.w3.org/2000/svg">
<path d="M16 26C14.75 26 13.5792 25.7625 12.4875 25.2875C11.3958 24.8125 10.4458 24.1708 9.6375 23.3625C8.82917 22.5542 8.1875 21.6042 7.7125 20.5125C7.2375 19.4208 7 18.25 7 17H9C9 18.95 9.67917 20.6042 11.0375 21.9625C12.3958 23.3208 14.05 24 16 24C17.95 24 19.6042 23.3208 20.9625 21.9625C22.3208 20.6042 23 18.95 23 17C23 15.05 22.3208 13.3958 20.9625 12.0375C19.6042 10.6792 17.95 10 16 10H15.85L17.4 11.55L16 13L12 9L16 5L17.4 6.45L15.85 8H16C17.25 8 18.4208 8.2375 19.5125 8.7125C20.6042 9.1875 21.5542 9.82917 22.3625 10.6375C23.1708 11.4458 23.8125 12.3958 24.2875 13.4875C24.7625 14.5792 25 15.75 25 17C25 18.25 24.7625 19.4208 24.2875 20.5125C23.8125 21.6042 23.1708 22.5542 22.3625 23.3625C21.5542 24.1708 20.6042 24.8125 19.5125 25.2875C18.4208 25.7625 17.25 26 16 26Z" fill="#1864F8"/>
</svg>
