<svg width="32" height="32" viewBox="0 0 32 32" fill="none" xmlns="http://www.w3.org/2000/svg">
<g clip-path="url(#clip0_2213_60)">
<path d="M26.3675 13.9781L25.9075 13.8862L26.0919 12.9669L26.5519 13.0587C26.9244 13.1337 27.295 13.2162 27.6637 13.3069C27.9994 13.3887 28.3325 13.48 28.6631 13.58C28.96 13.6687 29.2538 13.7681 29.5438 13.8775C29.8006 13.9737 30.0525 14.0812 30.2994 14.2006C30.5163 14.3044 30.7262 14.4231 30.9269 14.555C31.0181 14.6156 31.1069 14.68 31.1919 14.7481C31.2725 14.8125 31.3494 14.8812 31.4225 14.9544C31.4925 15.025 31.5575 15.1 31.6162 15.18C31.6744 15.2575 31.725 15.3406 31.7687 15.4275C31.8575 15.605 31.905 15.8006 31.9062 15.9994C31.905 16.1887 31.8625 16.375 31.7812 16.5456C31.7419 16.6287 31.6956 16.7087 31.6425 16.7837C31.5881 16.8612 31.5281 16.9344 31.4631 17.0031C31.3256 17.1469 31.1731 17.2762 31.0088 17.3894C30.8263 17.5156 30.635 17.63 30.4363 17.7306C30.2119 17.8456 29.9813 17.95 29.7469 18.0437C29.4825 18.1494 29.2144 18.2456 28.9431 18.3325C28.6412 18.43 28.3369 18.5187 28.03 18.5994C27.6931 18.6887 27.3544 18.77 27.0138 18.8437C26.6438 18.9244 26.2725 18.9981 25.9 19.065C25.5 19.1375 25.0987 19.2031 24.6969 19.2619C23.8175 19.3906 22.9344 19.4956 22.0494 19.5762C21.0781 19.6656 20.105 19.7319 19.13 19.7744C18.0875 19.8212 17.0438 19.8444 16 19.8437H15.5312V18.9062H16C17.03 18.9069 18.06 18.8837 19.0888 18.8381C20.0488 18.7956 21.0069 18.7306 21.9638 18.6425C22.8319 18.5637 23.6981 18.4606 24.5606 18.3344C24.9531 18.2769 25.3444 18.2125 25.7344 18.1425C26.0956 18.0775 26.4556 18.0062 26.8144 17.9281C27.1412 17.8569 27.4669 17.7787 27.7913 17.6931C28.0819 17.6162 28.37 17.5325 28.6562 17.44C28.9069 17.3594 29.155 17.2706 29.3994 17.1725C29.6075 17.09 29.8113 16.9975 30.0106 16.8956C30.1719 16.8137 30.3281 16.7206 30.4769 16.6175C30.5881 16.5412 30.6906 16.4537 30.7838 16.3569C30.8175 16.3212 30.8481 16.2831 30.8762 16.2437C30.8987 16.2119 30.9181 16.1787 30.9344 16.1444C30.9556 16.0994 30.9675 16.05 30.9688 16.0006C30.9675 15.9469 30.9544 15.8944 30.93 15.8469C30.9113 15.8087 30.8894 15.7731 30.8644 15.7394C30.8319 15.6956 30.7962 15.6544 30.7575 15.6156C30.71 15.5675 30.6594 15.5225 30.6063 15.48C30.5438 15.43 30.4787 15.3825 30.4112 15.3381C30.245 15.2287 30.0719 15.1312 29.8925 15.045C29.6712 14.9381 29.445 14.8412 29.2144 14.755C28.9437 14.6531 28.67 14.5606 28.3931 14.4775C28.0781 14.3825 27.76 14.2956 27.4406 14.2175C27.0844 14.13 26.7269 14.05 26.3675 13.9781Z" fill="#F7DA42"/>
<path d="M16 18.9062H16.4688V19.8437H16C14.9562 19.8444 13.9125 19.8212 12.87 19.7744C11.895 19.7319 10.9219 19.6656 9.95063 19.5762C9.06563 19.4956 8.1825 19.3906 7.30312 19.2619C6.90125 19.2031 6.5 19.1375 6.1 19.065C5.7275 18.9981 5.35625 18.9244 4.98625 18.8437C4.64562 18.77 4.30688 18.6887 3.97 18.5994C3.66313 18.5187 3.35875 18.43 3.05687 18.3325C2.78562 18.2456 2.5175 18.1494 2.25312 18.0437C2.01875 17.95 1.78813 17.8456 1.56375 17.7306C1.365 17.63 1.17375 17.5156 0.99125 17.3894C0.826875 17.2762 0.674375 17.1469 0.536875 17.0031C0.471875 16.9344 0.411875 16.8612 0.3575 16.7837C0.304375 16.7087 0.258125 16.6287 0.21875 16.5456C0.1375 16.375 0.095 16.1887 0.09375 15.9994C0.095 15.8006 0.1425 15.6044 0.2325 15.4262C0.275625 15.3394 0.326875 15.2562 0.385 15.1781C0.444375 15.0981 0.509375 15.0231 0.58 14.9525C0.653125 14.8794 0.73 14.81 0.81125 14.7456C0.896875 14.6769 0.985625 14.6125 1.07687 14.5519C1.27937 14.42 1.49 14.3012 1.7075 14.1969C1.95562 14.0775 2.20875 13.9694 2.46625 13.8731C2.75812 13.7644 3.05312 13.665 3.35125 13.5756C3.68312 13.4756 4.01813 13.3844 4.355 13.3025C4.72563 13.2119 5.09813 13.1287 5.47188 13.0544L5.93188 12.9625L6.11562 13.8819L5.65562 13.9737C5.295 14.0456 4.935 14.1256 4.5775 14.2131C4.25625 14.2912 3.9375 14.3781 3.62063 14.4731C3.3425 14.5569 3.06688 14.6494 2.795 14.7512C2.56375 14.8381 2.33625 14.935 2.11375 15.0419C1.93312 15.1281 1.75937 15.2262 1.59187 15.3356C1.52437 15.38 1.45875 15.4281 1.39562 15.4781C1.3425 15.5206 1.29187 15.5662 1.24375 15.6144C1.205 15.6531 1.16938 15.695 1.13625 15.7387C1.11125 15.7725 1.08875 15.8081 1.07062 15.8462C1.04625 15.8937 1.0325 15.9469 1.03125 16.0006C1.0325 16.05 1.04437 16.0994 1.06562 16.1444C1.08187 16.1787 1.10125 16.2119 1.12375 16.2437C1.15187 16.2831 1.1825 16.3212 1.21625 16.3569C1.30937 16.4537 1.41188 16.5412 1.52313 16.6175C1.67188 16.7206 1.82812 16.8137 1.98937 16.8956C2.18875 16.9975 2.3925 17.09 2.60063 17.1725C2.845 17.2706 3.09312 17.3594 3.34375 17.44C3.63 17.5325 3.91812 17.6162 4.20875 17.6931C4.53312 17.7787 4.85875 17.8569 5.18563 17.9281C5.54438 18.0062 5.90437 18.0775 6.26562 18.1425C6.65562 18.2125 7.04687 18.2769 7.43937 18.3344C8.30187 18.4606 9.16813 18.5637 10.0363 18.6425C10.9931 18.7306 11.9513 18.7956 12.9113 18.8381C13.94 18.8837 14.97 18.9069 16 18.9062Z" fill="#F7DA42"/>
<path fill-rule="evenodd" clip-rule="evenodd" d="M4.96875 16C4.9675 14.5256 5.2625 13.0663 5.83625 11.7081C6.39188 10.3975 7.19438 9.20688 8.20125 8.20125C9.20688 7.19438 10.3975 6.39188 11.7075 5.83625C13.0656 5.2625 14.5256 4.9675 16 4.96875C17.4744 4.9675 18.9344 5.2625 20.2925 5.83625C21.6025 6.39188 22.7931 7.19438 23.7988 8.20125C24.8056 9.20688 25.6081 10.3975 26.1638 11.7075C26.7375 13.0656 27.0325 14.5256 27.0313 16C27.0325 17.4744 26.7375 18.9344 26.1638 20.2925C25.6081 21.6025 24.8056 22.7931 23.7988 23.7988C22.7931 24.8056 21.6025 25.6081 20.2925 26.1638C18.9344 26.7375 17.4744 27.0325 16 27.0313C14.5256 27.0325 13.0656 26.7375 11.7075 26.1638C10.3975 25.6081 9.20688 24.8056 8.20125 23.7988C7.19438 22.7931 6.39188 21.6025 5.83625 20.2925C5.2625 18.9344 4.9675 17.4744 4.96875 16ZM5.90625 16C5.905 14.6513 6.175 13.3156 6.7 12.0725C7.20813 10.8738 7.94313 9.78438 8.86438 8.86438C9.78438 7.94313 10.8738 7.20813 12.0731 6.7C13.3156 6.175 14.6513 5.905 16 5.90625C17.3488 5.905 18.6844 6.175 19.9269 6.7C21.1263 7.20813 22.2156 7.94313 23.1356 8.86438C24.0569 9.78438 24.7919 10.8738 25.3 12.0731C25.825 13.3156 26.095 14.6513 26.0938 16C26.095 17.3488 25.825 18.6844 25.3 19.9269C24.7919 21.1263 24.0569 22.2156 23.1356 23.1356C22.2156 24.0569 21.1263 24.7919 19.9269 25.3C18.6844 25.825 17.3488 26.095 16 26.0938C14.6513 26.095 13.3156 25.825 12.0731 25.3C10.8738 24.7919 9.78438 24.0569 8.86438 23.1356C7.94313 22.2156 7.20813 21.1263 6.7 19.9269C6.175 18.6844 5.905 17.3488 5.90625 16Z" fill="#F7DA42"/>
<path d="M9.96375 7.695L9.76875 7.59625L9.96625 7.20625L10.1612 7.305C10.6706 7.56313 11.1944 7.79 11.7312 7.98438C12.2944 8.18875 12.8694 8.36 13.4525 8.4975C14.0812 8.64625 14.7181 8.75813 15.36 8.8325C16.0712 8.915 16.7862 8.96063 17.5025 8.96875C18.2456 8.97688 18.9881 9.01313 19.7287 9.07625C20.3837 9.13188 21.0362 9.215 21.6844 9.32563C22.2656 9.425 22.8419 9.54813 23.4125 9.69563C23.9319 9.82938 24.4444 9.9875 24.9487 10.1694L25.155 10.2431L25.0069 10.655L24.8012 10.5806C24.3087 10.4038 23.8094 10.25 23.3031 10.1194C22.7444 9.975 22.18 9.85375 21.6112 9.75688C20.975 9.64875 20.3344 9.56688 19.6912 9.51188C18.9619 9.44938 18.23 9.41438 17.4975 9.40625C16.7662 9.39813 16.0362 9.35188 15.3094 9.26688C14.6512 9.19063 13.9975 9.07563 13.3519 8.92375C12.7525 8.78188 12.1612 8.60563 11.5819 8.39563C11.0287 8.195 10.4881 7.96125 9.96375 7.695ZM6.38875 11.5881L6.17562 11.5394L6.27312 11.1131L6.48625 11.1619C6.64937 11.1988 6.81312 11.2344 6.97687 11.2675C7.15687 11.3044 7.3375 11.3394 7.51812 11.3719C7.6475 11.3956 7.7775 11.4181 7.9075 11.44C8.04562 11.4631 8.18437 11.485 8.32312 11.5063C8.7675 11.5744 9.21312 11.6344 9.66 11.6856C10.195 11.7469 10.7312 11.8 11.2675 11.8444C11.725 11.8813 12.1831 11.9044 12.6419 11.9144C13.0987 11.925 13.5562 11.9294 14.0137 11.9281C14.155 11.9281 14.2962 11.9281 14.4375 11.9281C14.5719 11.9275 14.7062 11.9275 14.8406 11.9275C15.2037 11.9263 15.5662 11.93 15.9294 11.9381C16.0931 11.9419 16.2575 11.9488 16.4212 11.9575C16.5706 11.965 16.72 11.9769 16.8694 11.9913C17.0031 12.0044 17.1362 12.0225 17.2694 12.045C17.3869 12.0644 17.5031 12.0906 17.6175 12.1238C17.7187 12.1519 17.8175 12.19 17.9125 12.2369C18.0006 12.2806 18.0819 12.3375 18.1525 12.4056C18.2819 12.5331 18.3875 12.6819 18.465 12.8456C18.5394 13.0013 18.5794 13.1719 18.5812 13.3444C18.5819 13.5 18.5456 13.6538 18.475 13.7919C18.3969 13.9394 18.285 14.0663 18.1487 14.1619C18.0737 14.2144 17.9937 14.26 17.91 14.2969C17.8175 14.3381 17.7212 14.3713 17.6231 14.3963C17.5131 14.4244 17.4006 14.445 17.2875 14.4575C17.1594 14.4719 17.0306 14.4788 16.9012 14.4781C16.8044 14.4781 16.7069 14.475 16.61 14.4681C16.3812 14.4525 16.1519 14.4331 15.9237 14.41C15.6819 14.3856 15.4406 14.36 15.1987 14.3338C14.7575 14.2838 14.315 14.24 13.8719 14.2019C13.6469 14.1831 13.4212 14.1681 13.195 14.1575C12.9694 14.1463 12.7437 14.1406 12.5181 14.1406C12.1175 14.1381 11.7169 14.1619 11.3194 14.2106C11.1262 14.235 10.9344 14.2681 10.7444 14.3088C10.5581 14.3488 10.3744 14.3988 10.1931 14.4581C10.0544 14.5038 9.91437 14.5475 9.77437 14.59C9.63125 14.6331 9.48749 14.675 9.34249 14.715C8.77124 14.8731 8.19312 15.0069 7.61062 15.1163C6.96062 15.2375 6.30687 15.3338 5.65 15.405L5.4325 15.4288L5.38562 14.9938L5.6025 14.97C6.24875 14.9 6.89125 14.8056 7.53 14.6863C8.10062 14.5794 8.66625 14.4481 9.22562 14.2931C9.36687 14.2544 9.50812 14.2131 9.64812 14.1713C9.78499 14.1294 9.92125 14.0869 10.0569 14.0419C10.2525 13.9781 10.4512 13.9244 10.6525 13.8813C10.855 13.8375 11.0594 13.8025 11.265 13.7769C11.6812 13.7256 12.1 13.7006 12.5194 13.7031C12.7519 13.7031 12.9844 13.7088 13.2162 13.7206C13.4475 13.7319 13.6781 13.7469 13.9087 13.7656C14.3556 13.8044 14.8019 13.8481 15.2475 13.8988C15.4875 13.925 15.7275 13.9506 15.9675 13.975C16.1912 13.9975 16.4156 14.0163 16.64 14.0319C16.7269 14.0375 16.815 14.0406 16.9025 14.0406C17.015 14.0413 17.1275 14.035 17.2394 14.0225C17.3325 14.0119 17.4244 13.9956 17.5156 13.9725C17.59 13.9531 17.6625 13.9281 17.7331 13.8969C17.7906 13.8713 17.8456 13.84 17.8969 13.8038C17.9762 13.7488 18.0412 13.6756 18.0869 13.5906C18.1244 13.5156 18.1437 13.4325 18.1437 13.3481C18.1425 13.2394 18.1169 13.1319 18.07 13.0331C18.0144 12.9163 17.9394 12.81 17.8475 12.7194C17.8094 12.6825 17.7662 12.6525 17.7187 12.6294C17.6481 12.5944 17.5744 12.5656 17.4981 12.5444C17.3987 12.5163 17.2981 12.4931 17.1962 12.4763C17.0737 12.4556 16.95 12.4388 16.8262 12.4269C16.6837 12.4125 16.5406 12.4019 16.3975 12.3944C16.2381 12.3856 16.0787 12.3794 15.9187 12.3756C15.56 12.3675 15.2006 12.3638 14.8412 12.365C14.7069 12.365 14.5731 12.365 14.4387 12.3656C14.2969 12.3656 14.1556 12.3656 14.0144 12.3656C13.5531 12.3669 13.0925 12.3625 12.6319 12.3519C12.165 12.3413 11.6981 12.3175 11.2325 12.2806C10.6906 12.2356 10.15 12.1825 9.60999 12.12C9.15749 12.0681 8.70687 12.0081 8.25687 11.9388C8.11625 11.9175 7.97562 11.895 7.83562 11.8713C7.70312 11.8494 7.57125 11.8263 7.44 11.8025C7.25625 11.7694 7.0725 11.7338 6.88937 11.6963C6.7225 11.6625 6.555 11.6263 6.38875 11.5881Z" fill="#F7DA42"/>
<path fill-rule="evenodd" clip-rule="evenodd" d="M22.6738 16.715C22.5869 16.76 22.4981 16.8 22.4069 16.835C22.2894 16.8806 22.17 16.9238 22.0494 16.9638C21.745 17.065 21.4369 17.1562 21.1263 17.2362C20.785 17.3256 20.44 17.4031 20.0931 17.4675C19.9294 17.4981 19.7644 17.5244 19.5988 17.5456C19.4494 17.5656 19.2988 17.5794 19.1488 17.5869C19.0681 17.5906 18.9881 17.5919 18.9081 17.5919C18.6694 17.5931 18.4313 17.575 18.1956 17.5375C17.975 17.5025 17.7581 17.4463 17.5488 17.3694C17.3475 17.295 17.155 17.1987 16.9756 17.0812C16.7975 16.965 16.6344 16.8281 16.4881 16.6737C16.4475 16.6319 16.4113 16.5856 16.3813 16.5356C16.3456 16.4794 16.3263 16.4144 16.3238 16.3481C16.3225 16.2888 16.3388 16.23 16.37 16.1794C16.3969 16.1375 16.4331 16.1019 16.4756 16.0756C16.5094 16.0544 16.545 16.0375 16.5825 16.0256C16.6181 16.0138 16.655 16.0044 16.6919 15.9975C16.7719 15.9838 16.8525 15.975 16.9338 15.9719C17.0281 15.9675 17.1231 15.9656 17.2175 15.9663C17.3288 15.9663 17.4394 15.9675 17.55 15.9694C17.6831 15.9712 17.8163 15.9725 17.9494 15.9731C18.1806 15.9744 18.4113 15.9662 18.6419 15.9481C18.7513 15.9387 18.8606 15.9256 18.9694 15.9075C19.0694 15.8913 19.1681 15.8694 19.2656 15.8413C19.3719 15.81 19.48 15.7838 19.5888 15.7619C19.7106 15.7375 19.8331 15.7175 19.9563 15.7019C20.0475 15.6906 20.1388 15.6819 20.2306 15.675C20.3306 15.6675 20.4306 15.6619 20.5313 15.6594C20.6038 15.6569 20.6769 15.6562 20.75 15.6562C20.8281 15.6562 20.9056 15.6575 20.9838 15.66C21.2294 15.6675 21.475 15.6844 21.7194 15.7106C22.0256 15.7437 22.3306 15.7869 22.6338 15.84C22.685 15.8613 22.7344 15.8856 22.7825 15.9131C22.815 15.9319 22.8456 15.9531 22.8744 15.9769C22.8956 15.9938 22.915 16.0125 22.9331 16.0325C22.9513 16.0519 22.9669 16.0738 22.9806 16.0963C22.9969 16.1238 23.0094 16.1525 23.0181 16.1825C23.0275 16.2138 23.0319 16.2462 23.0313 16.2787C23.0306 16.31 23.0263 16.3406 23.0175 16.37C23.0088 16.3988 22.9975 16.4263 22.9825 16.4519C22.97 16.4738 22.9556 16.4944 22.9394 16.5138C22.9225 16.5338 22.905 16.5531 22.8856 16.5706C22.8575 16.5963 22.8281 16.62 22.7969 16.6413C22.7569 16.6675 22.7156 16.6925 22.6738 16.715ZM16.8488 16.4169C16.8831 16.4131 16.9181 16.4106 16.9525 16.4088C17.04 16.405 17.1281 16.4031 17.2163 16.4037C17.325 16.4037 17.4338 16.405 17.5425 16.4069C17.6775 16.4088 17.8125 16.41 17.9475 16.4106C18.1906 16.4119 18.4344 16.4031 18.6769 16.3838C18.7988 16.3738 18.9194 16.3587 19.04 16.3394C19.1569 16.32 19.2731 16.2944 19.3869 16.2612C19.4819 16.2337 19.5781 16.21 19.675 16.1906C19.7863 16.1681 19.8975 16.15 20.01 16.1362C20.0944 16.1256 20.1781 16.1175 20.2625 16.1112C20.3563 16.1044 20.45 16.0994 20.5438 16.0969C20.6125 16.0944 20.6806 16.0938 20.7494 16.0938C20.8231 16.0938 20.8969 16.095 20.9706 16.0975C21.205 16.1044 21.4388 16.12 21.6719 16.1456C21.9513 16.1756 22.2294 16.215 22.5063 16.2619C22.52 16.2688 22.5331 16.275 22.5463 16.2825C22.5213 16.2987 22.4956 16.3144 22.4694 16.3281C22.3988 16.365 22.3256 16.3975 22.2513 16.4263C22.1381 16.47 22.0256 16.5112 21.9113 16.5487C21.6163 16.6469 21.3175 16.735 21.0156 16.8125C20.6844 16.9 20.35 16.975 20.0131 17.0375C19.8569 17.0663 19.6994 17.0913 19.5413 17.1119C19.4044 17.1306 19.2663 17.1431 19.1281 17.15C19.0544 17.1531 18.9806 17.1544 18.9069 17.1544C18.6919 17.1556 18.4763 17.1394 18.2638 17.1056C18.0713 17.075 17.8825 17.0256 17.7 16.9587C17.5294 16.8956 17.3669 16.8144 17.215 16.715C17.0825 16.6288 16.96 16.5288 16.8488 16.4169Z" fill="#F7DA42"/>
<path d="M17.8387 23.7975C17.8412 23.7994 17.8431 23.8012 17.8456 23.8025C17.8656 23.8162 17.8875 23.8275 17.9106 23.8356C17.9712 23.8562 18.0331 23.8731 18.0962 23.8844C18.1625 23.8962 18.2287 23.905 18.2956 23.9112C18.3994 23.92 18.5037 23.9256 18.6075 23.9281C18.69 23.93 18.7719 23.93 18.8544 23.9294C18.9594 23.9275 19.0637 23.9244 19.1687 23.92C19.39 23.9106 19.6112 23.8956 19.8325 23.8762C20.1537 23.8481 20.4744 23.8144 20.7944 23.7756C21.0519 23.745 21.3087 23.7112 21.5656 23.6756C21.8875 23.6306 22.2081 23.5837 22.5287 23.5337L22.745 23.5006L22.8119 23.9325L22.5962 23.9662C22.2731 24.0162 21.95 24.0637 21.6262 24.1087C21.3669 24.145 21.1069 24.1787 20.8462 24.21C20.5219 24.2494 20.1969 24.2831 19.8712 24.3119C19.6437 24.3325 19.4156 24.3475 19.1875 24.3569C19.0787 24.3619 18.9694 24.365 18.8606 24.3662C18.7731 24.3675 18.6856 24.3675 18.5981 24.3656C18.4844 24.3631 18.3712 24.3569 18.2581 24.3469C18.1775 24.34 18.0975 24.3294 18.0181 24.315C17.9331 24.2994 17.8487 24.2775 17.7669 24.2487C17.7069 24.2281 17.65 24.1994 17.5981 24.1631C17.5606 24.1375 17.5262 24.1069 17.4962 24.0725C17.4669 24.0381 17.4431 23.9994 17.4269 23.9569C17.41 23.9156 17.4012 23.8719 17.3994 23.8275C17.3975 23.7831 17.4019 23.7381 17.4131 23.695C17.4587 23.52 17.5231 23.35 17.6044 23.1881C17.67 23.0581 17.7419 22.9312 17.8181 22.8075C17.86 22.7406 17.8994 22.6719 17.9356 22.6012C17.9412 22.5894 17.9469 22.5775 17.9519 22.5656C17.9281 22.5556 17.9044 22.5475 17.88 22.54C17.8275 22.5231 17.775 22.5087 17.7219 22.4956C17.5681 22.4575 17.4131 22.4269 17.2569 22.4031C17.0494 22.3706 16.8406 22.3462 16.6312 22.3294C16.3831 22.3094 16.1344 22.2994 15.885 22.2994C15.5662 22.2994 15.2481 22.3162 14.9312 22.35C14.5931 22.3862 14.2575 22.4444 13.9269 22.525C13.885 22.5356 13.8425 22.545 13.8 22.5537C13.755 22.5631 13.7094 22.5712 13.6637 22.5794C13.5212 22.6031 13.3781 22.6206 13.2337 22.6306C13.0569 22.6431 12.8794 22.6494 12.7019 22.6481C12.5269 22.6475 12.3512 22.6412 12.1762 22.6294C11.965 22.615 11.7537 22.5956 11.5431 22.5706C11.3906 22.5531 11.2381 22.5325 11.0862 22.51C10.9144 22.4844 10.7425 22.4562 10.5712 22.4256C10.4487 22.4037 10.3262 22.3812 10.2044 22.3569C10.0719 22.3312 9.93937 22.3037 9.80687 22.2756C9.40499 22.19 9.00499 22.0962 8.60749 21.9937C8.11124 21.8656 7.61749 21.7294 7.12562 21.585L6.91562 21.5231L7.03937 21.1031L7.24937 21.165C7.73624 21.3081 8.22499 21.4431 8.71624 21.57C9.10874 21.6706 9.50249 21.7637 9.89812 21.8481C10.0281 21.8756 10.1581 21.9019 10.2881 21.9275C10.4081 21.9512 10.5275 21.9737 10.6475 21.995C10.815 22.0244 10.9831 22.0519 11.1512 22.0769C11.2981 22.0994 11.4462 22.1187 11.5944 22.1362C11.7975 22.1606 12.0012 22.1794 12.2056 22.1931C12.3712 22.2037 12.5381 22.21 12.7044 22.2106C12.8706 22.2119 13.0369 22.2062 13.2025 22.1944C13.3325 22.185 13.4619 22.1694 13.5906 22.1475C13.6312 22.1412 13.6719 22.1331 13.7119 22.125C13.7494 22.1175 13.7862 22.1094 13.8231 22.1C14.1725 22.015 14.5269 21.9531 14.885 21.915C15.2169 21.8794 15.5512 21.8619 15.8856 21.8619C16.1456 21.8619 16.4062 21.8725 16.6656 21.8931C16.8862 21.9106 17.1056 21.9369 17.3237 21.9706C17.4925 21.9969 17.66 22.03 17.8262 22.0706C17.8881 22.0856 17.9494 22.1031 18.01 22.1225C18.0575 22.1369 18.1031 22.1537 18.1487 22.1737C18.2187 22.2031 18.28 22.2494 18.3269 22.3087C18.3762 22.3731 18.4019 22.4525 18.4006 22.5337C18.4 22.5825 18.3912 22.6312 18.3762 22.6775C18.3625 22.7194 18.3456 22.7606 18.3256 22.8C18.2837 22.8812 18.2381 22.9612 18.1894 23.0387C18.12 23.1512 18.055 23.2669 17.995 23.385C17.9287 23.5169 17.8762 23.655 17.8387 23.7975Z" fill="#F7DA42"/>
</g>
<defs>
<clipPath id="clip0_2213_60">
<rect width="32" height="32" fill="white"/>
</clipPath>
</defs>
</svg>
