<svg width="32" height="32" viewBox="0 0 32 32" fill="none" xmlns="http://www.w3.org/2000/svg">
<g clip-path="url(#clip0_2213_76)">
<path fill-rule="evenodd" clip-rule="evenodd" d="M6.40813 21.5156C5.91875 20.6688 5.54375 19.7613 5.29313 18.8156C5.05188 17.9013 4.92938 16.9594 4.93 16.0131C4.93 14.105 5.42313 12.2281 6.36063 10.5663C6.83438 9.7275 7.41625 8.95375 8.09188 8.26688C8.79063 7.55688 9.5825 6.94438 10.4456 6.44688C11.2925 5.9575 12.2 5.5825 13.1456 5.33188C14.06 5.09063 15.0019 4.96813 15.9481 4.96875C17.8563 4.96875 19.7331 5.46188 21.395 6.4C22.2338 6.87313 23.0075 7.455 23.6944 8.13063C24.4044 8.82938 25.0169 9.62125 25.5144 10.4844C26.0038 11.3313 26.3788 12.2388 26.6294 13.1844C26.8706 14.0988 26.9925 15.0406 26.9925 15.9869C26.9925 17.895 26.4994 19.7719 25.5613 21.4338C25.0881 22.2725 24.5063 23.0463 23.8306 23.7331C23.1319 24.4431 22.34 25.0556 21.4769 25.5531C20.63 26.0425 19.7225 26.4175 18.7769 26.6681C17.8625 26.9094 16.92 27.0319 15.9744 27.0313C14.0663 27.0313 12.1894 26.5381 10.5275 25.6C9.68875 25.1269 8.915 24.545 8.22813 23.8694C7.5175 23.1706 6.90563 22.3788 6.40813 21.5156ZM7.22 21.0469C6.77188 20.2719 6.42875 19.4413 6.19938 18.5756C5.97875 17.7394 5.86688 16.8781 5.8675 16.0131C5.8675 14.2663 6.31875 12.5488 7.1775 11.0275C7.61063 10.26 8.1425 9.5525 8.76 8.92438C9.4 8.27438 10.1244 7.71375 10.9144 7.25875C11.6894 6.81063 12.52 6.4675 13.385 6.23813C14.2213 6.0175 15.0831 5.90563 15.9481 5.90625C17.695 5.90625 19.4125 6.3575 20.9338 7.21625C21.7013 7.64938 22.4088 8.18125 23.0369 8.79875C23.6869 9.43875 24.2475 10.1631 24.7025 10.9531C25.1506 11.7281 25.4938 12.5588 25.7225 13.4238C25.9438 14.2606 26.055 15.1219 26.055 15.9869C26.055 17.7338 25.6038 19.4513 24.745 20.9725C24.3119 21.74 23.78 22.4475 23.1625 23.0756C22.5225 23.7256 21.7981 24.2863 21.0081 24.7413C20.2331 25.1894 19.4025 25.5325 18.5375 25.7619C17.7006 25.9825 16.8394 26.0944 15.9744 26.0938C14.2275 26.0938 12.51 25.6425 10.9881 24.7838C10.2206 24.3506 9.51375 23.8188 8.885 23.2013C8.23563 22.5613 7.675 21.8369 7.22 21.0469Z" fill="#4393DE"/>
<path d="M17.1787 5.36188C17.2175 5.31875 17.2719 5.29313 17.33 5.29C17.3875 5.2875 17.4444 5.3075 17.4875 5.34625C17.5306 5.38563 17.5562 5.44 17.5594 5.4975C17.5619 5.55563 17.5419 5.6125 17.5031 5.65563C17.1581 6.03688 16.7975 6.40375 16.4219 6.75563C16.0306 7.12188 15.6256 7.47313 15.2069 7.80813C14.3231 8.51438 13.3862 9.1525 12.4062 9.71688C11.4775 10.2544 10.5112 10.725 9.515 11.1238C9.04125 11.3138 8.56125 11.4856 8.075 11.6394C7.60687 11.7881 7.13312 11.9181 6.65562 12.03C6.59875 12.0431 6.53937 12.0331 6.49 12.0025C6.44062 11.9719 6.40562 11.9231 6.3925 11.8669C6.37937 11.81 6.38937 11.7506 6.42 11.7013C6.45062 11.6519 6.49937 11.6169 6.55562 11.6038C7.0225 11.4944 7.48562 11.3675 7.9425 11.2225C8.41875 11.0719 8.88875 10.9031 9.3525 10.7181C10.3294 10.3263 11.2762 9.865 12.1875 9.33813C13.1487 8.78438 14.0669 8.15875 14.9337 7.46625C15.3431 7.13875 15.74 6.795 16.1225 6.43625C16.4894 6.0925 16.8412 5.73438 17.1787 5.36188ZM8.92375 16.9138C8.97937 16.8988 9.03937 16.9063 9.08937 16.935C9.14 16.9644 9.17625 17.0119 9.19187 17.0675C9.20687 17.1238 9.19875 17.1838 9.17 17.2338C9.14125 17.2844 9.09375 17.3206 9.0375 17.3363C8.47937 17.4869 7.91562 17.6138 7.34687 17.7169C6.81062 17.8144 6.27062 17.8863 5.72812 17.9331C5.67 17.9381 5.6125 17.92 5.56812 17.8825C5.52375 17.8456 5.49625 17.7919 5.49125 17.7344C5.48625 17.6763 5.50437 17.6188 5.54187 17.5744C5.57937 17.53 5.6325 17.5025 5.69062 17.4975C6.21937 17.4519 6.74625 17.3813 7.26875 17.2863C7.825 17.1856 8.3775 17.0613 8.92375 16.9138ZM16.6644 17.2181C16.7144 17.1888 16.7744 17.1813 16.83 17.1963C16.8862 17.2113 16.9344 17.2475 16.9631 17.2981C16.9919 17.3481 17 17.4081 16.985 17.4638C16.97 17.52 16.9331 17.5675 16.8831 17.5969C16.2212 17.9788 15.5469 18.3388 14.8606 18.6744C14.2006 18.9981 13.5294 19.2981 12.8487 19.575C12.1987 19.8388 11.5394 20.0794 10.8719 20.295C10.2394 20.5 9.6 20.68 8.95375 20.8344C8.89687 20.8475 8.8375 20.8381 8.78812 20.8081C8.73875 20.7775 8.70375 20.7288 8.69 20.6725C8.67625 20.6163 8.68625 20.5563 8.71625 20.5069C8.74687 20.4575 8.79562 20.4225 8.85187 20.4088C9.48687 20.2569 10.1156 20.08 10.7369 19.8788C11.3944 19.6663 12.0437 19.4294 12.6837 19.1694C13.3556 18.8969 14.0175 18.6006 14.6681 18.2819C15.3456 17.95 16.0112 17.595 16.6644 17.2181ZM26.43 16.5863C26.4662 16.5406 26.5187 16.5113 26.5762 16.505C26.6337 16.4981 26.6919 16.5144 26.7375 16.5506C26.7825 16.5869 26.8119 16.6394 26.8187 16.6969C26.8256 16.7544 26.8087 16.8125 26.7731 16.8581C26.3425 17.4006 25.8844 17.9206 25.3994 18.415C24.8825 18.9431 24.3406 19.4463 23.7756 19.9225C23.1787 20.4256 22.56 20.9019 21.9206 21.3494C21.2512 21.8181 20.5619 22.2569 19.8544 22.665C19.275 23 18.6837 23.3138 18.0819 23.6063C18.03 23.6313 17.97 23.635 17.915 23.6163C17.86 23.5969 17.815 23.5569 17.79 23.505C17.7644 23.4525 17.7606 23.3925 17.78 23.3381C17.7987 23.2831 17.8387 23.2381 17.8906 23.2125C18.4831 22.925 19.065 22.6156 19.6356 22.2863C20.3319 21.8844 21.0106 21.4519 21.67 20.9906C22.2981 20.5506 22.9069 20.0825 23.4937 19.5875C24.0481 19.1206 24.5794 18.6269 25.0869 18.1088C25.5612 17.6256 26.0094 17.1169 26.43 16.5863ZM20.4606 10.1706C20.5012 10.1294 20.5569 10.1056 20.6144 10.105C20.6725 10.1044 20.7287 10.1269 20.77 10.1675C20.8112 10.2075 20.835 10.2631 20.8356 10.3213C20.8362 10.3794 20.8137 10.435 20.7731 10.4769C20.365 10.8938 19.9412 11.295 19.5025 11.68C19.0431 12.0825 18.57 12.4688 18.0825 12.8369C18.0362 12.8719 17.9781 12.8869 17.9206 12.8788C17.8631 12.8713 17.8112 12.8406 17.7762 12.7944C17.7412 12.7481 17.7262 12.69 17.7344 12.6325C17.7419 12.575 17.7725 12.5231 17.8187 12.4881C18.2975 12.1263 18.7625 11.7469 19.2137 11.3513C19.6444 10.9738 20.06 10.58 20.4606 10.1706ZM24.7269 10.4169C24.7625 10.3713 24.8144 10.3413 24.8719 10.3331C24.9294 10.3256 24.9875 10.3413 25.0337 10.3769C25.08 10.4119 25.11 10.4638 25.1175 10.5213C25.125 10.5788 25.1094 10.6375 25.0744 10.6831C24.7544 11.1013 24.4175 11.5063 24.0662 11.8981C23.6937 12.3131 23.3069 12.715 22.9069 13.1025C22.865 13.1431 22.8094 13.165 22.7512 13.1644C22.6931 13.1631 22.6375 13.1394 22.5975 13.0975C22.5569 13.0556 22.535 13 22.5356 12.9419C22.5369 12.8838 22.5606 12.8288 22.6025 12.7881C22.9956 12.4075 23.375 12.0131 23.7406 11.6056C24.0844 11.2225 24.4137 10.8263 24.7269 10.4169Z" fill="#4393DE"/>
<path fill-rule="evenodd" clip-rule="evenodd" d="M14.6225 14.7706C14.5681 14.685 14.5269 14.5919 14.5 14.4937C14.4737 14.3956 14.4606 14.2956 14.4612 14.1944C14.4631 14.0344 14.4912 13.8762 14.545 13.725C14.6019 13.5644 14.6787 13.4112 14.7744 13.27C14.8775 13.1162 14.9969 12.975 15.13 12.8475C15.2737 12.71 15.43 12.5875 15.5981 12.4812C15.8131 12.3437 16.0456 12.2356 16.2894 12.1587C16.5106 12.0881 16.7412 12.0512 16.9731 12.0494C17.0844 12.0487 17.1956 12.0594 17.3056 12.08C17.4106 12.0994 17.5131 12.1312 17.6106 12.1744C17.7069 12.2169 17.7962 12.2725 17.8769 12.3394C17.9587 12.4069 18.0287 12.4869 18.0856 12.5762C18.14 12.6625 18.1812 12.7556 18.2075 12.8537C18.2337 12.9512 18.2469 13.0519 18.2462 13.1525C18.245 13.3125 18.2162 13.4712 18.1631 13.6219C18.1062 13.7831 18.0287 13.9362 17.9331 14.0775C17.8306 14.2306 17.7112 14.3725 17.5775 14.5C17.4344 14.6375 17.2775 14.76 17.1094 14.8662C16.8944 15.0031 16.6619 15.1119 16.4181 15.1881C16.1969 15.2587 15.9669 15.2956 15.7344 15.2981C15.6231 15.2981 15.5119 15.2881 15.4025 15.2675C15.2975 15.2475 15.195 15.2156 15.0969 15.1725C15.0012 15.1306 14.9112 15.075 14.8306 15.0081C14.7494 14.94 14.6787 14.86 14.6225 14.7706ZM14.9919 14.5369C14.9606 14.4881 14.9375 14.4344 14.9225 14.3787C14.9069 14.32 14.8987 14.2594 14.8987 14.1981C14.9 14.0862 14.92 13.9762 14.9575 13.8712C15.0019 13.745 15.0619 13.625 15.1369 13.5144C15.2225 13.3869 15.3219 13.2694 15.4325 13.1631C15.555 13.0456 15.6894 12.9412 15.8325 12.8506C16.0162 12.7337 16.2144 12.6412 16.4219 12.5762C16.6006 12.5187 16.7875 12.4887 16.9756 12.4869C17.0594 12.4869 17.1425 12.4944 17.2244 12.51C17.2962 12.5231 17.3669 12.545 17.4337 12.575C17.4931 12.6006 17.5481 12.635 17.5975 12.6756C17.6437 12.7144 17.6837 12.76 17.7162 12.8106C17.7469 12.8594 17.77 12.9125 17.7856 12.9681C17.8012 13.0269 17.8094 13.0881 17.8087 13.1494C17.8075 13.2606 17.7881 13.3712 17.7506 13.4762C17.7062 13.6019 17.6456 13.7219 17.5706 13.8331C17.485 13.96 17.3862 14.0781 17.275 14.1837C17.1525 14.3012 17.0187 14.4062 16.875 14.4969C16.6919 14.6137 16.4937 14.7062 16.2862 14.7712C16.1069 14.8287 15.92 14.8587 15.7319 14.8606C15.6487 14.8606 15.5656 14.8531 15.4837 14.8375C15.4112 14.8237 15.3412 14.8019 15.2737 14.7725C15.215 14.7462 15.16 14.7125 15.11 14.6712C15.0637 14.6331 15.0237 14.5875 14.9919 14.5369Z" fill="#4393DE"/>
<path d="M6.89875 20.2581L6.69312 20.3325L6.54437 19.9212L6.75 19.8469C6.8975 19.7937 7.04875 19.7525 7.20312 19.725C7.34875 19.6981 7.49562 19.685 7.64312 19.6844C7.79125 19.6837 7.93937 19.6994 8.08375 19.73C8.22 19.7587 8.35125 19.805 8.475 19.8675C8.59375 19.9281 8.70125 20.0081 8.79375 20.1044C8.88562 20.2012 8.95687 20.3162 9.00312 20.4419C9.04062 20.5475 9.06 20.6594 9.06 20.7719C9.0575 20.94 9.01937 21.105 8.9475 21.2569C8.8725 21.4169 8.7725 21.5644 8.65187 21.6931C8.52062 21.8344 8.3725 21.9581 8.21062 22.0619C8.035 22.1756 7.84687 22.2687 7.65 22.3394L7.44375 22.4131L7.29625 22.0012L7.50187 21.9275C7.6675 21.8681 7.82625 21.7894 7.97375 21.6944C8.105 21.61 8.22562 21.5094 8.33187 21.395C8.42187 21.2987 8.49625 21.1894 8.55187 21.0706C8.59625 20.9762 8.62062 20.8731 8.6225 20.7681C8.6225 20.7075 8.61187 20.6475 8.59125 20.5906C8.56625 20.5219 8.5275 20.4594 8.47687 20.4062C8.41937 20.3456 8.35125 20.2956 8.27687 20.2581C8.18687 20.2125 8.09187 20.1787 7.99312 20.1581C7.87875 20.1337 7.76187 20.1212 7.645 20.1219C7.52312 20.1225 7.40125 20.1337 7.28125 20.155C7.15125 20.1787 7.02312 20.2131 6.89875 20.2581Z" fill="#4393DE"/>
<path fill-rule="evenodd" clip-rule="evenodd" d="M15.6094 24.4931C15.5631 24.3937 15.5394 24.2862 15.54 24.1769C15.5419 24.0562 15.5662 23.9387 15.6125 23.8287C15.6606 23.7144 15.7244 23.6081 15.8025 23.5125C15.8862 23.41 15.9812 23.3175 16.0869 23.2375C16.1994 23.1506 16.3212 23.0769 16.4506 23.0169C16.575 22.9581 16.705 22.9131 16.8387 22.8819C16.9637 22.8519 17.0919 22.8369 17.22 22.8362C17.3131 22.8362 17.4056 22.845 17.4969 22.8637C17.5844 22.8812 17.6694 22.9094 17.7494 22.9481C17.8294 22.9862 17.9025 23.0369 17.9662 23.0981C18.0319 23.1606 18.085 23.2344 18.1231 23.3162C18.1694 23.4156 18.1931 23.5237 18.1925 23.6337C18.1906 23.7531 18.1662 23.8706 18.12 23.9806C18.0719 24.095 18.0081 24.2012 17.93 24.2969C17.8462 24.3994 17.7512 24.4919 17.6456 24.5719C17.5331 24.6587 17.4112 24.7325 17.2819 24.7925C17.1575 24.8512 17.0275 24.8962 16.8937 24.9275C16.7687 24.9569 16.6406 24.9725 16.5125 24.9731C16.4194 24.9731 16.3269 24.9644 16.2356 24.9456C16.1481 24.9281 16.0631 24.9 15.9831 24.8612C15.9031 24.8231 15.83 24.7725 15.7662 24.7112C15.7006 24.6487 15.6475 24.575 15.6094 24.4931ZM16.0056 24.3081C15.9869 24.2675 15.9775 24.2237 15.9775 24.1787C15.9787 24.1175 15.9919 24.0556 16.0162 23.9981C16.0475 23.9225 16.09 23.8525 16.1419 23.7894C16.2037 23.7131 16.2744 23.6444 16.3525 23.585C16.44 23.5175 16.5356 23.46 16.6362 23.4131C16.7331 23.3675 16.8344 23.3319 16.9387 23.3075C17.0319 23.2856 17.1269 23.2744 17.2219 23.2737C17.285 23.2737 17.3481 23.28 17.41 23.2925C17.4619 23.3025 17.5125 23.3194 17.56 23.3425C17.5981 23.3612 17.6337 23.385 17.6644 23.4144C17.6906 23.4394 17.7112 23.4687 17.7269 23.5012C17.7456 23.5412 17.755 23.585 17.755 23.6294C17.7537 23.6919 17.7406 23.7537 17.7162 23.8112C17.685 23.8862 17.6425 23.9569 17.5906 24.02C17.5287 24.0962 17.4581 24.165 17.38 24.2244C17.2925 24.2919 17.1969 24.3494 17.0969 24.3962C16.9994 24.4419 16.8981 24.4775 16.7937 24.5019C16.7006 24.5237 16.6056 24.535 16.5106 24.5356C16.4475 24.5356 16.3844 24.5294 16.3225 24.5169C16.2706 24.5062 16.22 24.4894 16.1725 24.4669C16.1344 24.4481 16.0987 24.4244 16.0681 24.395C16.0425 24.37 16.0212 24.3406 16.0056 24.3081Z" fill="#4393DE"/>
<path d="M14.7019 14.5238C14.7525 14.495 14.8119 14.4881 14.8681 14.5038C14.9237 14.5194 14.9713 14.5569 14.9994 14.6069C15.0281 14.6575 15.035 14.7175 15.0194 14.7731C15.0037 14.8294 14.9662 14.8769 14.9156 14.905C14.2281 15.2913 13.5238 15.6475 12.805 15.9738C12.7525 15.9981 12.6919 16 12.6381 15.9794C12.5838 15.9588 12.5394 15.9181 12.5156 15.865C12.4919 15.8125 12.4894 15.7519 12.51 15.6975C12.5306 15.6438 12.5713 15.5994 12.6244 15.5756C13.3313 15.2544 14.0244 14.9038 14.7019 14.5238Z" fill="#4393DE"/>
</g>
<defs>
<clipPath id="clip0_2213_76">
<rect width="32" height="32" fill="white"/>
</clipPath>
</defs>
</svg>
