<svg width="32" height="32" viewBox="0 0 32 32" fill="none" xmlns="http://www.w3.org/2000/svg">
<g clip-path="url(#clip0_2213_38)">
<path fill-rule="evenodd" clip-rule="evenodd" d="M4.96875 16C4.9675 14.5256 5.2625 13.0663 5.83625 11.7081C6.39188 10.3975 7.19438 9.20688 8.20125 8.20125C9.20688 7.19438 10.3975 6.39188 11.7075 5.83625C13.0656 5.2625 14.5256 4.9675 16 4.96875C17.4744 4.9675 18.9344 5.2625 20.2925 5.83625C21.6025 6.39188 22.7931 7.19438 23.7988 8.20125C24.8056 9.20688 25.6081 10.3975 26.1638 11.7075C26.7375 13.0656 27.0325 14.5256 27.0313 16C27.0325 17.4744 26.7375 18.9344 26.1638 20.2925C25.6081 21.6025 24.8056 22.7931 23.7988 23.7988C22.7931 24.8056 21.6025 25.6081 20.2925 26.1638C18.9344 26.7375 17.4744 27.0325 16 27.0313C14.5256 27.0325 13.0656 26.7375 11.7075 26.1638C10.3975 25.6081 9.20688 24.8056 8.20125 23.7988C7.19438 22.7931 6.39188 21.6025 5.83625 20.2925C5.2625 18.9344 4.9675 17.4744 4.96875 16ZM5.90625 16C5.905 14.6513 6.175 13.3156 6.7 12.0725C7.20813 10.8738 7.94313 9.78438 8.86438 8.86438C9.78438 7.94313 10.8738 7.20813 12.0731 6.7C13.3156 6.175 14.6513 5.905 16 5.90625C17.3488 5.905 18.6844 6.175 19.9269 6.7C21.1263 7.20813 22.2156 7.94313 23.1356 8.86438C24.0569 9.78438 24.7919 10.8738 25.3 12.0731C25.825 13.3156 26.095 14.6513 26.0938 16C26.095 17.3488 25.825 18.6844 25.3 19.9269C24.7919 21.1263 24.0569 22.2156 23.1356 23.1356C22.2156 24.0569 21.1263 24.7919 19.9269 25.3C18.6844 25.825 17.3488 26.095 16 26.0938C14.6513 26.095 13.3156 25.825 12.0731 25.3C10.8738 24.7919 9.78438 24.0569 8.86438 23.1356C7.94313 22.2156 7.20813 21.1263 6.7 19.9269C6.175 18.6844 5.905 17.3488 5.90625 16Z" fill="#BCA386"/>
<path d="M13.1919 8.2575C13.2494 8.26625 13.3006 8.29812 13.335 8.345C13.3688 8.39187 13.3831 8.45 13.3744 8.5075C13.365 8.565 13.3338 8.61625 13.2869 8.65062C13.24 8.68437 13.1819 8.69875 13.1244 8.69C12.5306 8.5975 11.9425 8.47312 11.3625 8.31687C10.8094 8.16875 10.2656 7.98875 9.7325 7.77875C9.67875 7.7575 9.63563 7.71562 9.6125 7.6625C9.58938 7.60875 9.58813 7.54875 9.60938 7.495C9.63063 7.44062 9.6725 7.3975 9.72563 7.37437C9.77938 7.35125 9.83938 7.35062 9.89313 7.37187C10.4106 7.57562 10.9388 7.75 11.4763 7.89437C12.0413 8.04625 12.6138 8.1675 13.1919 8.2575ZM8.94188 11.0275C8.99625 11.0475 9.04063 11.0881 9.065 11.1406C9.08938 11.1937 9.09188 11.2537 9.07188 11.3081C9.05188 11.3625 9.01063 11.4069 8.95813 11.4312C8.90563 11.4556 8.845 11.4581 8.79063 11.4381C8.19438 11.2181 7.61188 10.9606 7.04813 10.6675C6.99625 10.6406 6.9575 10.5944 6.94 10.5394C6.9225 10.4844 6.92813 10.4237 6.95438 10.3725C6.98125 10.3212 7.0275 10.2825 7.0825 10.265C7.13813 10.2475 7.19813 10.2525 7.24938 10.2794C7.7975 10.5637 8.3625 10.8137 8.94188 11.0275ZM12.2669 21.73C12.3244 21.7375 12.3769 21.7675 12.4119 21.8131C12.4475 21.8594 12.4631 21.9175 12.4556 21.975C12.4481 22.0325 12.4181 22.085 12.3725 22.12C12.3263 22.1556 12.2681 22.1712 12.2106 22.1637C11.6175 22.0862 11.0269 21.9894 10.44 21.8719C9.87938 21.76 9.32313 21.6281 8.77188 21.4762C8.71563 21.4606 8.66813 21.4237 8.63938 21.3737C8.61125 21.3231 8.60375 21.2631 8.61875 21.2075C8.63438 21.1512 8.67125 21.1037 8.72188 21.075C8.7725 21.0462 8.83188 21.0394 8.88813 21.0544C9.42875 21.2037 9.975 21.3331 10.5256 21.4431C11.1025 21.5581 11.6838 21.6537 12.2669 21.73ZM25.6606 11.4987C25.7113 11.4706 25.7713 11.4637 25.8269 11.4794C25.8831 11.4956 25.93 11.5331 25.9581 11.5837C25.9863 11.6344 25.9931 11.6944 25.9775 11.75C25.9613 11.8056 25.9238 11.8531 25.8731 11.8812C25.3638 12.1644 24.8375 12.4169 24.2981 12.6375C23.72 12.875 23.1306 13.0812 22.5313 13.2569C22.4756 13.2737 22.4156 13.2669 22.365 13.2394C22.3138 13.2112 22.2763 13.1644 22.26 13.1087C22.2438 13.0531 22.25 12.9931 22.2775 12.9425C22.3056 12.8912 22.3525 12.8537 22.4081 12.8375C22.9931 12.6656 23.5681 12.4644 24.1319 12.2331C24.6556 12.0187 25.1663 11.7731 25.6606 11.4987ZM20.4519 23.13C20.5094 23.1206 20.5681 23.135 20.6144 23.1694C20.6613 23.2031 20.6931 23.255 20.7019 23.3119C20.7106 23.3694 20.6963 23.4281 20.6625 23.475C20.6281 23.5219 20.5769 23.5531 20.5194 23.5619C19.6806 23.6931 18.8363 23.7862 17.9888 23.8412C17.9313 23.845 17.8738 23.8256 17.8306 23.7875C17.7869 23.7494 17.76 23.695 17.7563 23.6375C17.7525 23.5794 17.7719 23.5225 17.81 23.4787C17.8488 23.435 17.9025 23.4087 17.9606 23.4044C18.7944 23.35 19.6263 23.2587 20.4519 23.13ZM16 24.6562C16.0575 24.6562 16.1138 24.6794 16.1544 24.72C16.1956 24.7612 16.2188 24.8169 16.2188 24.875C16.2188 24.9325 16.1956 24.9887 16.155 25.0294C16.1138 25.0706 16.0581 25.0937 16 25.0937C14.8244 25.095 13.6494 25.0169 12.4838 24.8587C11.9319 24.7844 11.3831 24.69 10.8381 24.5762C10.3156 24.4675 9.79813 24.34 9.285 24.1925C9.22938 24.1769 9.18188 24.1394 9.15375 24.0887C9.12563 24.0381 9.11875 23.9781 9.135 23.9225C9.15125 23.8662 9.18875 23.8194 9.23938 23.7912C9.29 23.7631 9.35 23.7562 9.40563 23.7725C9.90813 23.9162 10.4156 24.0412 10.9275 24.1481C11.4625 24.2594 12.0013 24.3519 12.5425 24.4256C13.6888 24.5806 14.8438 24.6575 16 24.6562ZM12.5031 16.8244C12.5606 16.8312 12.6131 16.8606 12.6494 16.9062C12.685 16.9519 12.7013 17.01 12.6944 17.0675C12.6875 17.125 12.6581 17.1775 12.6125 17.2137C12.5669 17.2494 12.5088 17.2656 12.4513 17.2587C11.7888 17.1794 11.13 17.0756 10.4756 16.9469C9.85313 16.8256 9.23625 16.6787 8.62563 16.5087C8.04938 16.3481 7.48063 16.1625 6.92063 15.9525C6.39625 15.7569 5.8825 15.535 5.38063 15.2887C5.32813 15.2637 5.28875 15.2181 5.27 15.1631C5.25125 15.1087 5.255 15.0481 5.28063 14.9962C5.30563 14.9444 5.35125 14.9044 5.40625 14.8856C5.46063 14.8669 5.52125 14.8706 5.57313 14.8962C6.0625 15.1362 6.56313 15.3519 7.07375 15.5431C7.62188 15.7481 8.17875 15.93 8.74313 16.0869C9.3425 16.2544 9.94875 16.3981 10.56 16.5181C11.2038 16.6437 11.8519 16.7462 12.5031 16.8244ZM16 19.5312C16.0581 19.5312 16.1138 19.5544 16.1544 19.595C16.1956 19.6362 16.2188 19.6919 16.2188 19.75C16.2188 19.8081 16.1956 19.8637 16.155 19.9044C16.1138 19.9456 16.0581 19.9687 16 19.9687C15.1019 19.9694 14.2038 19.9337 13.3081 19.8637C12.4544 19.7969 11.6038 19.695 10.7581 19.5594C10.7013 19.55 10.65 19.5181 10.6156 19.4712C10.5819 19.4244 10.5681 19.3656 10.5769 19.3087C10.5863 19.2512 10.6181 19.2 10.665 19.1662C10.7119 19.1319 10.7706 19.1181 10.8281 19.1275C11.6619 19.2612 12.5006 19.3612 13.3425 19.4275C14.2263 19.4969 15.1131 19.5319 16 19.5312ZM23.1631 8.08562C23.215 8.05875 23.275 8.05375 23.33 8.07125C23.385 8.08875 23.4313 8.12812 23.4581 8.17937C23.4844 8.23125 23.4894 8.29125 23.4719 8.34625C23.4544 8.40187 23.415 8.4475 23.3638 8.47437C22.9431 8.69125 22.5113 8.88562 22.07 9.05687C21.6081 9.23625 21.1375 9.39312 20.66 9.52625C20.1625 9.665 19.6588 9.78062 19.15 9.8725C18.6225 9.9675 18.09 10.0387 17.5556 10.0856C17.4975 10.0906 17.44 10.0725 17.3956 10.0356C17.3513 9.99812 17.3238 9.94437 17.3188 9.88687C17.3131 9.82937 17.3313 9.77187 17.3688 9.72687C17.4063 9.6825 17.4594 9.655 17.5175 9.65C18.0388 9.60437 18.5575 9.535 19.0725 9.44187C19.5675 9.3525 20.0581 9.24 20.5425 9.105C21.0063 8.97562 21.4631 8.82375 21.9113 8.64937C22.3381 8.48375 22.7563 8.295 23.1631 8.08562ZM19.6069 11.9287C19.6638 11.9194 19.7225 11.9331 19.77 11.9669C19.8169 12.0006 19.8488 12.0519 19.8581 12.1094C19.8675 12.1662 19.8538 12.225 19.82 12.2719C19.7856 12.3194 19.7344 12.3512 19.6775 12.3606C18.4619 12.5594 17.2319 12.6581 16 12.6562C15.2106 12.6569 14.4219 12.6162 13.6369 12.5362C12.8888 12.4594 12.145 12.3437 11.4088 12.1887C11.3519 12.1769 11.3025 12.1425 11.2706 12.0944C11.2388 12.0456 11.2281 11.9862 11.24 11.9294C11.2519 11.8731 11.2856 11.8231 11.3344 11.7912C11.3831 11.76 11.4419 11.7487 11.4988 11.7606C12.22 11.9125 12.9481 12.0256 13.6813 12.1006C14.4519 12.18 15.2256 12.2194 16 12.2187C17.2081 12.2206 18.4144 12.1237 19.6069 11.9287ZM16 13.7187C16.0575 13.7187 16.1138 13.7419 16.1544 13.7825C16.1956 13.8237 16.2188 13.8794 16.2188 13.9375C16.2188 13.995 16.1956 14.0512 16.155 14.0919C16.1138 14.1331 16.0581 14.1562 16 14.1562C14.8263 14.1575 13.6544 14.075 12.4919 13.9094C12.435 13.9012 12.3831 13.8706 12.3481 13.8244C12.3131 13.7781 12.2981 13.7194 12.3063 13.6619C12.3144 13.6044 12.3456 13.5525 12.3919 13.5181C12.4381 13.4831 12.4963 13.4681 12.5538 13.4762C13.695 13.6394 14.8469 13.72 16 13.7187ZM21.6994 16.4656C21.7556 16.4537 21.815 16.465 21.8638 16.4969C21.9119 16.5287 21.9463 16.5787 21.9575 16.6356C21.9694 16.6919 21.9581 16.7512 21.9263 16.8C21.8944 16.8481 21.8444 16.8819 21.7881 16.8937C21.19 17.0175 20.5875 17.1206 19.9825 17.2031C19.2313 17.305 18.4769 17.3775 17.72 17.42C17.6619 17.4237 17.605 17.4037 17.5619 17.365C17.5188 17.3262 17.4925 17.2719 17.4894 17.2144C17.4863 17.1562 17.5063 17.0994 17.5444 17.0562C17.5831 17.0131 17.6375 16.9869 17.6956 16.9831C18.4406 16.9412 19.1838 16.87 19.9231 16.7694C20.5188 16.6887 21.1106 16.5875 21.6994 16.4656ZM26.41 17.7075C26.4638 17.6862 26.5244 17.6862 26.5775 17.7087C26.6306 17.7319 26.6731 17.7744 26.695 17.8281C26.7169 17.8819 26.7163 17.9425 26.6938 17.9956C26.6713 18.0494 26.6281 18.0912 26.5744 18.1131C25.8444 18.4087 25.0988 18.6637 24.3406 18.8775C24.285 18.8931 24.225 18.8862 24.1744 18.8581C24.1238 18.8294 24.0869 18.7825 24.0713 18.7262C24.055 18.6706 24.0625 18.6106 24.0906 18.56C24.1188 18.5094 24.1663 18.4725 24.2219 18.4562C24.9644 18.2475 25.695 17.9975 26.41 17.7075ZM25.4569 20.2506C25.5106 20.2287 25.5706 20.2281 25.6244 20.2506C25.6781 20.2725 25.7206 20.315 25.7431 20.3687C25.7656 20.4219 25.7656 20.4825 25.7438 20.5356C25.7213 20.5894 25.6788 20.6325 25.6256 20.6544C25.1031 20.8725 24.5719 21.0669 24.0325 21.2375C23.4594 21.4194 22.88 21.5781 22.2944 21.7131C21.6781 21.8562 21.0563 21.9756 20.4306 22.0725C19.7763 22.1731 19.1188 22.2512 18.4588 22.3056C18.4013 22.31 18.3438 22.2919 18.2994 22.2544C18.2556 22.2169 18.2281 22.1631 18.2231 22.1056C18.2181 22.0475 18.2369 21.99 18.2744 21.9462C18.3119 21.9019 18.365 21.8744 18.4231 21.8694C19.0725 21.8162 19.72 21.7394 20.3638 21.64C20.9788 21.545 21.59 21.4275 22.1956 21.2869C22.77 21.1544 23.3388 20.9987 23.9 20.8206C24.4275 20.6537 24.9469 20.4637 25.4569 20.2506ZM13.8806 23.3937C13.9388 23.3981 13.9925 23.425 14.0306 23.4687C14.0688 23.5125 14.0875 23.5694 14.0838 23.6275C14.0794 23.685 14.0525 23.7394 14.0088 23.7769C13.965 23.815 13.9081 23.8344 13.85 23.83C12.795 23.7562 11.745 23.6219 10.7056 23.4287C10.2138 23.3369 9.725 23.23 9.24 23.1087C8.77563 22.9931 8.315 22.8619 7.85875 22.7162C7.80313 22.6981 7.7575 22.6594 7.73063 22.6081C7.70438 22.5562 7.69938 22.4962 7.71688 22.4412C7.73438 22.3856 7.77313 22.34 7.825 22.3131C7.87625 22.2869 7.93625 22.2819 7.99188 22.2994C8.43875 22.4425 8.89063 22.5706 9.34625 22.6844C9.8225 22.8037 10.3025 22.9087 10.7856 22.9987C11.8088 23.1887 12.8425 23.3206 13.8806 23.3937Z" fill="#BCA386"/>
</g>
<defs>
<clipPath id="clip0_2213_38">
<rect width="32" height="32" fill="white"/>
</clipPath>
</defs>
</svg>
